<svg xmlns="http://www.w3.org/2000/svg" viewBox="-4285 230 127.155 23.332"><defs><style>.cls-1{fill:#d31217}.cls-1,.cls-2{fill-rule:evenodd}</style></defs><g id="Mathematics_logo" data-name="Mathematics logo" transform="translate(-4665 151)"><g id="Pyhsics-world-logo" transform="translate(380 79)"><path id="Path_1" d="M537.141 12.1V8.9a4 4 0 0 0-.379-1.515 3.01 3.01 0 0 0-2.823-2.007c-2.793 0-3.115 3.486-3.115 5.587 0 2.212.262 5.79 3.229 5.79a2.82 2.82 0 0 0 1.833-.64c1.255-.989 1.255-2.533 1.255-4.015m2.124 6.151h-1.921v-2.02a3.97 3.97 0 0 1-3.84 2.3c-4.015 0-5.034-4.017-5.034-7.3 0-3.229 1.076-7.624 5.093-7.624a3.59 3.59 0 0 1 3.58 2.241V0h2.12Z" class="cls-1" data-name="Path 1" transform="translate(-412.11)"/><path id="Path_2" d="M11.524 25.236c0-2.969-.82-7.246-4.6-7.246-1.718 0-2.475.99-3.236 2.358V18.2H0v19.2h3.929v-5.943a3.3 3.3 0 0 0 2.735 1.279c4.017.009 4.86-4.299 4.86-7.5m-4.1-.088c0 1.048.029 3.229-.554 4.132a1.3 1.3 0 0 1-1.251.668c-1.833 0-1.688-1.8-1.688-3.143v-3.519c0-1.193.32-2.647 1.8-2.647 1.862 0 1.688 3.055 1.688 4.306Z" class="cls-2" data-name="Path 2" transform="translate(0 -14.301)"/><path id="Path_3" d="M70.978 18.249V8.694c0-2.647-.291-5.093-3.609-5.093a3.74 3.74 0 0 0-3.521 1.8L63.836 0H59.86v18.249h3.986V9.131c0-1.31.174-2.415 1.716-2.415S67 7.82 67 9.042v9.207Z" class="cls-2" data-name="Path 3" transform="translate(-47.16)"/><path id="Path_4" d="M124.461 19H121l-1.862 8.755L117.186 19H113.2l4.1 14.085c-.437 1.542-.7 2.036-2.358 2.036a7.5 7.5 0 0 1-1.165-.088V38.2a7 7 0 0 0 1.716.232c3.229 0 3.84-2.27 4.628-4.86Z" class="cls-2" data-name="Path 4" transform="translate(-88.7 -15.104)"/><path id="Path_5" d="M175.106 27.8c0-2.823-2.007-3.58-4.249-4.394a9.6 9.6 0 0 1-1.776-.757 1.37 1.37 0 0 1-.615-1.193 1.177 1.177 0 0 1 1.251-1.251c1.251 0 1.747.9 2.1 1.95l2.852-.845a4.666 4.666 0 0 0-4.86-3.754c-2.735 0-5.093 1.659-5.093 4.568 0 2.707 2.007 3.754 4.306 4.511a6.6 6.6 0 0 1 1.688.7 1.3 1.3 0 0 1 .615 1.193c0 .931-.728 1.31-1.571 1.31-1.4 0-2.007-.845-2.3-2.124l-3.172.523c.465 3.055 2.415 4.249 5.384 4.249 2.879.003 5.44-1.567 5.44-4.686" class="cls-2" data-name="Path 5" transform="translate(-128.78 -13.959)"/><path id="Rectangle_1" d="M0 0h3.986v14.347H0z" data-name="Rectangle 1" transform="translate(47.8 3.892)"/><path id="Rectangle_2" d="M0 0h3.99v2.657H0z" data-name="Rectangle 2" transform="translate(47.805)"/><path id="Path_6" d="m255.442 26.852-3.726-.234c-.057 1.105-.232 2.647-1.659 2.647-1.95 0-1.921-3.076-1.921-4.394 0-1.368.057-4.277 2.007-4.277 1.368 0 1.513 1.688 1.571 2.707l3.726-.174c-.146-1.688-.32-2.852-1.542-4.1a5.02 5.02 0 0 0-3.871-1.456c-4.452 0-5.946 3.521-5.946 7.449 0 3.871 1.279 7.48 5.741 7.48 3.678 0 5.242-2.184 5.62-5.648" class="cls-2" data-name="Path 6" transform="translate(-190.58 -13.967)"/><path id="Path_7" d="M310.726 27.8c0-2.823-2.007-3.58-4.249-4.394a9.6 9.6 0 0 1-1.776-.757 1.37 1.37 0 0 1-.615-1.193 1.177 1.177 0 0 1 1.251-1.251c1.251 0 1.745.9 2.1 1.95l2.852-.845a4.666 4.666 0 0 0-4.86-3.754c-2.735 0-5.093 1.659-5.093 4.568 0 2.707 2.007 3.754 4.306 4.511a6.6 6.6 0 0 1 1.688.7 1.3 1.3 0 0 1 .615 1.193c0 .931-.728 1.31-1.571 1.31-1.4 0-2.007-.845-2.3-2.124l-3.172.523c.465 3.055 2.415 4.249 5.384 4.249 2.879.003 5.44-1.567 5.44-4.686" class="cls-2" data-name="Path 7" transform="translate(-234.1 -13.959)"/><path id="Path_8" d="M365.419 18.98h-1.776l-2.561 10.884-2.647-10.884h-1.544l-2.444 10.769-2.473-10.769h-2.124l3.58 14.347h1.919l2.3-10.1 2.444 10.1h1.8Z" class="cls-1" data-name="Path 8" transform="translate(-273.115 -15.088)"/><path id="Path_9" d="M434.769 24.74c0-3.726-1.048-7.74-5.5-7.74-4.337 0-5.5 3.929-5.5 7.587s1.165 7.566 5.471 7.566 5.529-3.775 5.529-7.413m-2.358-.154c0 2.067-.32 5.762-3.143 5.762s-3.172-3.691-3.172-5.79.349-5.762 3.172-5.762 3.143 3.704 3.143 5.791Z" class="cls-1" data-name="Path 9" transform="translate(-331.47 -13.514)"/><path id="Path_10" d="M487.272 19.439v-2.415a3 3 0 0 0-.494-.029 3.24 3.24 0 0 0-2.067.873 5.7 5.7 0 0 0-1.571 2.532v-3h-1.89v14.358h2.122v-7.431c0-2.182.668-4.948 3.346-4.948a3.6 3.6 0 0 1 .554.059Z" class="cls-1" data-name="Path 10" transform="translate(-376.572 -13.509)"/><path id="Rectangle_3" d="M0 0h2.124v18.237H0z" data-name="Rectangle 3" style="fill:#d31217" transform="translate(112.512 .002)"/></g></g></svg>