<svg width="726" height="203" viewBox="0 0 726 203" fill="none" xmlns="http://www.w3.org/2000/svg">
<g clip-path="url(#clip0_5_649)">
<path d="M357.148 149.011C357.148 157.654 350.496 162.195 343.964 162.195C337.432 162.195 330.78 157.654 330.78 149.011V118.659H324.606V149.011C324.606 162.673 334.643 168.887 343.964 168.887C353.285 168.887 363.322 162.673 363.322 149.011V118.659H357.148V149.011Z" fill="#1177FF"/>
<path d="M343.685 34.8528H324.606V91.7725H335.759V72.2947H343.685C357.109 72.2947 363.243 62.6156 363.243 53.6136C363.243 44.6116 357.109 34.8528 343.685 34.8528ZM351.771 53.5737C351.771 55.7247 351.054 57.6764 349.74 59.1502C348.266 60.7833 346.155 61.6596 343.645 61.6596H335.719V45.448H343.645C349.222 45.448 351.771 49.6702 351.771 53.5737Z" fill="#1177FF"/>
<path d="M488.355 152.835L455.454 117.464V167.134H461.627V132.799L494.529 168.25V118.659H488.355V152.835Z" fill="#1177FF"/>
<path d="M492.975 49.0727C491.74 42.5005 485.965 34.8528 473.736 34.8528H455.454V91.7725H466.606V69.7455H471.307L486.204 91.7725H499.547L483.216 67.8734C490.466 64.5275 494.449 56.9594 492.975 49.1126V49.0727ZM481.862 52.339C481.862 54.1314 481.145 55.7645 479.87 56.9993C478.397 58.3934 476.286 59.1502 473.736 59.1502H466.606V45.448H473.736C479.313 45.448 481.862 48.9931 481.862 52.2991V52.339Z" fill="#1177FF"/>
<path d="M523.209 124.235H539.779V167.134H545.953V124.235H562.642V118.659H523.209V124.235Z" fill="#1177FF"/>
<path d="M560.73 49.0727C559.496 42.5005 553.72 34.8528 541.492 34.8528H523.209V91.7725H534.362V69.7455H539.062L553.959 91.7725H567.303L550.972 67.8734C558.221 64.5275 562.204 56.9594 560.73 49.1126V49.0727ZM534.402 45.448H541.531C547.108 45.448 549.657 48.9931 549.657 52.2991C549.657 54.0916 548.94 55.7247 547.666 56.9594C546.192 58.3536 544.081 59.1104 541.531 59.1104H534.402V45.4082V45.448Z" fill="#1177FF"/>
<path d="M686.639 147.617L673.932 118.38L653.578 167.333H659.951L674.131 133.476L686.599 161.637L699.146 133.476L713.246 167.333H719.699L699.345 118.38L686.639 147.617Z" fill="#1177FF"/>
<path d="M700.101 66.5589L686.637 37.7207L673.174 66.5589L659.193 34.8528H647.483L662.3 68.8692L667.04 79.7831H667L672.816 93.0471L686.637 62.7749L700.459 93.0471L725.792 34.8528H714.002L700.101 66.5589Z" fill="#1177FF"/>
<path d="M383.876 167.692H390.13L393.396 160.562H419.287L422.553 167.692H428.727L406.301 118.619L383.836 167.692H383.876ZM416.737 154.986H396.065L406.421 132.481L416.777 154.986H416.737Z" fill="#1177FF"/>
<path d="M406.341 33.6975L378.538 92.8876H390.249L393.794 85.3594H418.888L422.433 92.8876H434.064L406.261 33.6975H406.341ZM414.068 75.0828H398.733L406.421 58.7916L414.108 75.0828H414.068Z" fill="#1177FF"/>
<path d="M622.827 149.011C622.827 157.654 616.175 162.195 609.643 162.195C603.111 162.195 596.459 157.654 596.459 149.011V118.659H590.285V149.011C590.285 162.673 600.322 168.887 609.643 168.887C618.964 168.887 629.001 162.673 629.001 149.011V118.659H622.827V149.011Z" fill="#1177FF"/>
<path d="M609.643 33.5784C595.543 33.5784 580.407 42.8592 580.407 63.2929C580.407 83.7266 595.583 93.0075 609.643 93.0075C623.704 93.0075 638.88 83.6868 638.88 63.2929C638.88 42.899 623.704 33.5784 609.643 33.5784ZM627.966 63.2929C627.966 75.9993 618.486 81.7749 609.643 81.7749C600.801 81.7749 591.321 75.9993 591.321 63.2929C591.321 50.5866 600.801 44.8109 609.643 44.8109C618.486 44.8109 627.966 50.5866 627.966 63.2929Z" fill="#1177FF"/>
<path d="M278.362 83.0494C272.029 83.0494 267.369 81.1375 264.541 77.3137L264.023 76.5967L255.339 83.4079L255.857 84.0851C260.637 90.4183 268.723 94.043 278.083 94.043C288.48 94.043 298.955 88.3471 298.955 77.4332C298.955 65.4438 287.922 61.0623 279.039 57.5172C274.538 55.7248 270.276 54.012 268.842 51.7416C268.842 51.7416 268.723 51.5425 268.683 51.423C268.643 51.3035 268.603 51.2238 268.524 51.0247C268.365 50.706 268.285 50.3873 268.285 49.9094C268.285 44.6914 272.865 43.5761 276.729 43.5761C281.469 43.5761 286.05 45.5279 289.635 49.0729L290.272 49.7102L297.641 41.5048L297.083 40.9472C291.825 35.6894 284.377 32.5825 277.088 32.5825C267.767 32.5825 260.518 37.0039 258.128 44.1337C257.929 44.6914 257.729 45.2889 257.61 45.9262C257.172 47.9974 257.132 50.1484 257.53 52.3391C259.124 61.1419 268.165 64.8861 276.172 68.1922C282.505 70.8211 287.962 73.0517 287.962 77.1145C287.962 81.8147 281.947 83.0494 278.402 83.0494H278.362Z" fill="#1177FF"/>
<path d="M300.627 143.315C300.627 126.107 287.881 118.26 276.011 118.26C264.141 118.26 251.395 126.107 251.395 143.315C251.395 160.522 264.141 168.369 276.011 168.369C281.707 168.369 287.164 166.576 291.466 163.31L298.317 170.161L302.858 165.621L295.967 158.73C299.074 154.507 300.627 149.329 300.627 143.315ZM294.214 143.315C294.214 155.344 285.053 161.677 276.011 161.677C266.969 161.677 257.808 155.384 257.808 143.315C257.808 131.246 266.969 124.952 276.011 124.952C285.053 124.952 294.214 131.246 294.214 143.315Z" fill="#1177FF"/>
<path d="M212.839 199.478C213.834 200.713 212.759 202.505 211.205 202.226L199.734 200.195C165.757 194.22 152.374 190.595 138.154 186.771L137.875 186.692C129.032 184.302 102.146 177.092 92.5464 154.786C87.5674 143.275 91.7498 129.214 93.1837 125.152C95.1355 119.535 97.8042 114.078 101.309 108.582C101.708 107.984 102.624 107.984 102.982 108.621L106.448 114.835C108.001 117.623 108.041 121.009 106.647 123.877C106.049 125.152 105.492 126.546 104.615 129.095C102.584 134.99 101.11 143.952 103.659 149.927C110.949 166.816 133.573 172.91 141.022 174.902L141.301 174.981C152.772 178.048 163.686 180.996 185.833 185.218C168.227 163.271 151.896 142.439 132.577 115.034C124.93 104.16 123.137 98.0261 121.584 92.5692C121.385 91.8124 121.146 91.0954 120.946 90.3784L120.827 89.9801C119.274 83.3282 117.242 75.8 113.06 70.4227C109.714 66.1607 103.898 63.4123 98.2423 63.4123C91.4709 63.4123 84.1419 67.7938 79.5612 74.605C78.3663 76.3974 76.2552 77.8712 70.5194 81.5756C68.727 82.7307 66.7354 84.0452 65.8989 84.6825C64.6641 85.6384 63.509 86.7139 62.3937 87.7495C64.465 88.347 66.4167 88.825 67.8108 89.1835C69.6431 89.6216 70.3999 89.8208 71.1567 90.1394C77.1713 92.7683 82.4689 99.5796 79.4019 110.732C78.9637 112.246 78.2468 114.477 77.2908 117.305C74.5822 125.43 70.0812 138.973 70.0414 146.103C69.9617 162.355 81.0748 176.933 103.102 189.48L104.297 190.157L119.035 198.761C120.309 199.518 119.791 201.469 118.318 201.469H102.743C47.0186 201.469 0.773864 156.898 0.495042 101.173C0.375546 73.8084 11.0505 48.1168 30.5282 28.9179C49.528 10.2766 74.6221 0 101.27 0C101.748 0 102.226 0 102.704 0C155.242 0.716973 198.778 42.3412 201.885 94.6803C203.279 118.659 196.268 142 182.049 161.04C189.696 170.759 197.384 180.319 205.509 190.396L212.799 199.438L212.839 199.478ZM101.27 12.1487C77.8086 12.1487 55.7418 21.1905 39.0124 37.6809C21.9644 54.4899 12.6039 76.8754 12.6039 100.814C12.6039 141.483 40.1277 175.818 77.49 186.254C64.3853 174.384 57.813 161 57.8927 146.183C57.9325 137.141 62.6327 123.001 65.7396 113.64C66.576 111.091 67.3329 108.9 67.6515 107.665C68.9261 103.045 67.3727 101.969 66.4566 101.531C66.0981 101.412 65.5404 101.292 64.8633 101.133C61.2784 100.257 54.6265 98.5838 49.2492 96.0345L45.1067 94.0828C43.7126 93.4056 43.2744 91.6132 44.2304 90.3784L47.0584 86.7936C49.1297 84.1646 53.3519 79.1857 58.3309 75.322C59.5656 74.366 61.5174 73.0516 63.8276 71.5778C65.6997 70.3828 68.727 68.3912 69.7228 67.5548C76.6137 57.6367 87.4479 51.4627 98.1229 51.4627H98.2025C107.603 51.4627 116.963 55.9239 122.58 63.1334C128.236 70.3828 130.705 79.3052 132.538 87.1919C132.777 87.9088 132.976 88.6656 133.175 89.3826C134.529 94.1226 135.963 99.0219 142.456 108.223C153.768 124.275 164.045 138.097 174.202 151.202C185.394 134.99 190.891 115.472 189.696 95.5167C186.988 49.4711 148.669 12.9055 102.465 12.2284C102.026 12.2284 101.628 12.2284 101.19 12.2284L101.27 12.1487ZM66.2574 101.332C66.2574 101.332 66.2574 101.332 66.2972 101.332C66.2972 101.332 66.2972 101.332 66.2574 101.332Z" fill="url(#paint0_linear_5_649)"/>
</g>
<defs>
<linearGradient id="paint0_linear_5_649" x1="106.846" y1="202.226" x2="106.846" y2="0" gradientUnits="userSpaceOnUse">
<stop stop-color="#1177FF"/>
<stop offset="1" stop-color="#040AB9"/>
</linearGradient>
<clipPath id="clip0_5_649">
<rect width="725.298" height="202.226" fill="white" transform="translate(0.495911)"/>
</clipPath>
</defs>
</svg>
