<svg version="1.1" id="Layer_1" xmlns="http://www.w3.org/2000/svg" xmlns:xlink="http://www.w3.org/1999/xlink" x="0px" y="0px"
	 width="100%" viewBox="0 0 1176 514" enable-background="new 0 0 1176 514" xml:space="preserve">
<path fill="#FFFFFF" opacity="1.000000" stroke="none" 
	d="
M1177.000000,314.000000 
	C1177.000000,380.974213 1177.000000,447.948395 1177.000000,515.000000 
	C878.307495,515.000000 579.614990,515.000000 280.693604,514.650452 
	C291.350342,512.682129 302.331299,511.533508 313.102448,509.349884 
	C337.947174,504.313080 361.245422,494.894745 383.434387,482.782898 
	C400.416870,473.513000 416.009338,462.150909 430.278229,449.120148 
	C449.431030,431.629303 466.037506,411.938263 479.021027,389.399567 
	C486.664001,376.131775 494.189575,362.746674 498.119690,347.764832 
	C500.684448,337.987885 495.847321,328.909821 486.227570,326.019806 
	C474.022339,322.353058 467.530182,327.113251 462.464783,336.373566 
	C457.664886,345.148407 454.207977,354.647034 449.678223,363.582886 
	C442.343323,378.052460 432.945618,391.238129 422.118744,403.237427 
	C400.025635,427.722961 374.033173,446.868835 343.526642,459.912537 
	C316.970276,471.267273 289.223785,476.697662 260.591675,477.842316 
	C251.744431,478.196014 242.703522,477.370636 233.961136,475.865906 
	C218.948746,473.282013 203.792450,470.759338 189.258331,466.356506 
	C168.376984,460.030914 149.166687,449.881287 131.254257,437.183441 
	C110.392464,422.394836 92.799225,404.567230 78.137146,383.690277 
	C63.802746,363.279877 53.017109,341.135651 46.713852,317.057495 
	C43.274502,303.919342 40.826469,290.422394 39.232288,276.933472 
	C38.060268,267.016602 38.731621,256.840942 39.081249,246.798004 
	C39.367844,238.565689 39.726151,230.236633 41.211941,222.163803 
	C45.791531,197.281204 53.784447,173.570801 66.188202,151.345703 
	C80.728264,125.292747 99.530685,102.878761 123.051277,84.705650 
	C142.691666,69.530548 164.299835,57.557205 188.075455,49.926815 
	C214.123703,41.567066 240.682114,36.371216 268.184631,39.086708 
	C281.903107,40.441223 295.699219,41.928734 309.157959,44.781822 
	C329.896057,49.178040 349.159851,57.727966 367.612244,68.194374 
	C391.247345,81.600494 411.269073,99.317223 428.338898,120.158623 
	C442.887177,137.921341 454.137054,157.838135 462.320496,179.444717 
	C466.028473,189.234879 475.969696,193.380768 483.735077,191.589828 
	C496.081604,188.742386 502.250092,177.876923 497.833252,165.929932 
	C489.093292,142.289520 476.722839,120.657509 461.299164,100.661209 
	C447.140656,82.305138 430.850098,66.172066 412.513550,52.139446 
	C395.443848,39.076313 376.735748,28.702982 356.886871,20.441437 
	C336.007538,11.750973 314.422821,5.651761 291.919037,2.951605 
	C287.925476,2.472431 283.971985,1.659052 280.000000,1.000000 
	C578.887329,1.000000 877.774658,1.000000 1177.000000,1.000000 
	C1177.000000,75.692162 1177.000000,150.384827 1176.534424,225.538757 
	C1171.447876,227.102325 1165.844604,223.465652 1161.759033,228.808624 
	C1161.805054,228.820343 1161.413452,228.834625 1161.191284,228.647705 
	C1151.911621,220.839172 1138.870117,224.136276 1135.922974,235.715469 
	C1131.628540,252.587967 1132.074707,269.747559 1136.134766,286.624207 
	C1138.062012,294.634674 1145.062988,299.380737 1152.155640,297.803741 
	C1156.031860,296.941925 1159.471680,294.117737 1163.000000,292.236298 
	C1163.000000,297.053589 1162.697144,302.549164 1163.098755,307.992737 
	C1163.403931,312.131500 1162.041992,314.826721 1158.171753,315.859283 
	C1153.808960,317.023285 1150.311035,315.248627 1148.234741,311.369720 
	C1147.228271,309.489319 1147.060303,307.160034 1146.598633,305.367798 
	C1141.842529,305.367798 1137.462769,305.367798 1133.157837,305.367798 
	C1133.465820,308.145996 1133.662109,310.575073 1134.017578,312.980621 
	C1134.691772,317.541656 1136.697021,321.446564 1140.691284,323.868927 
	C1153.422485,331.589752 1170.684570,326.836823 1177.000000,314.000000 
M672.985901,122.925125 
	C673.027588,132.316879 674.998779,135.867142 681.168274,137.662109 
	C688.161194,139.696655 694.729675,136.309372 697.118591,129.671875 
	C699.476196,123.121162 697.199524,116.868553 689.972900,114.561905 
	C684.423035,112.790459 679.392029,114.467377 674.200439,117.998383 
	C672.879700,116.998016 671.552429,116.006157 670.240845,114.993973 
	C669.496887,114.419884 668.778687,113.812492 668.048889,113.220100 
	C668.967834,112.824440 669.873047,112.159515 670.809814,112.111435 
	C671.686951,112.066422 672.597717,112.674828 673.778076,113.097534 
	C673.778076,111.046791 673.778076,109.271790 673.778076,107.467506 
	C669.619507,105.809883 665.153687,104.412262 662.137878,108.630623 
	C659.690613,112.053665 658.463989,116.349380 656.935303,119.728828 
	C663.667480,124.994499 656.946289,131.437790 659.550964,136.762268 
	C661.816345,136.762268 664.215576,136.762268 667.037598,136.762268 
	C667.037598,131.773361 667.037598,127.008728 667.037598,122.043114 
	C669.269531,122.043114 671.077881,122.043114 672.985901,122.925125 
M385.978699,116.474838 
	C371.689911,104.157318 356.195587,93.773888 338.958099,85.911880 
	C318.379150,76.525848 296.880157,70.585983 274.397217,69.181107 
	C257.220306,68.107780 239.923691,68.533508 222.941757,72.134224 
	C190.613953,78.988731 161.446106,92.755913 136.456009,114.322754 
	C118.848282,129.518494 104.137253,147.428497 93.323181,168.270309 
	C75.880394,201.887589 67.580330,237.407318 72.144348,275.258331 
	C73.787300,288.883911 76.138229,302.626038 80.097969,315.731201 
	C90.524620,350.239410 110.151611,378.874908 137.654510,402.333954 
	C153.905701,416.195587 171.894287,426.988617 191.622025,434.663910 
	C219.741791,445.604279 248.956985,449.201538 279.094574,446.132690 
	C296.246063,444.386200 312.656647,440.439880 328.719543,434.220581 
	C364.447662,420.387329 393.226227,397.798523 414.924194,366.369385 
	C420.772308,357.898468 425.444000,348.564453 430.118958,339.354156 
	C432.776764,334.117920 431.331451,328.451050 427.004913,324.908722 
	C422.866211,321.520233 417.924316,319.842590 411.833405,322.321594 
	C405.184692,325.027649 403.401154,330.983795 400.601471,336.096130 
	C389.369202,356.606750 374.283569,373.729431 355.642548,387.589722 
	C330.742798,406.103699 302.477203,416.380707 271.635193,418.843475 
	C254.781555,420.189240 237.812332,419.064423 221.426224,414.587463 
	C197.020493,407.919403 174.834412,396.959869 155.449005,380.200653 
	C138.919403,365.910400 125.854332,349.193787 116.011795,329.877106 
	C106.032692,310.292358 100.656105,289.310730 99.115189,267.472900 
	C97.981888,251.411697 99.650764,235.437134 103.629623,219.802612 
	C110.281883,193.663284 122.303200,170.236099 140.403427,150.200287 
	C158.776459,129.862473 180.946609,114.964966 206.918060,105.943825 
	C229.360031,98.148628 252.303848,95.529678 276.070587,97.803055 
	C294.713318,99.586304 312.242462,104.629761 328.959167,112.573944 
	C349.633881,122.399101 367.531494,135.948456 382.293091,153.659561 
	C392.390533,165.774567 400.917114,178.723602 407.173065,193.220779 
	C411.962097,204.318588 427.275574,205.028442 432.559570,196.097275 
	C435.828949,190.571350 434.919891,185.414810 432.601196,180.248169 
	C421.686829,155.927902 406.064270,135.003418 385.978699,116.474838 
M223.469193,388.027222 
	C232.668854,389.684723 241.812408,392.231049 251.079773,392.816162 
	C270.863983,394.065277 290.221039,391.280579 308.818756,383.970184 
	C335.406311,373.519165 356.564667,356.323608 372.561218,332.766602 
	C376.810791,326.508484 375.462006,318.555542 370.117065,315.041992 
	C363.794678,310.885864 356.327026,312.724365 351.738556,319.587677 
	C343.371918,332.102295 332.937744,342.804352 320.288361,350.700806 
	C296.492157,365.555725 270.709503,372.041504 242.425156,367.133331 
	C213.792084,362.164673 190.130341,348.668518 172.653992,325.785461 
	C153.466919,300.662384 145.586121,272.106476 150.890732,240.307449 
	C154.733887,217.269272 164.894608,197.578049 180.806076,180.784485 
	C190.182693,170.888077 201.300110,163.374344 213.717377,157.550720 
	C227.831131,150.931442 242.668961,147.574966 258.040527,147.123596 
	C278.267944,146.529617 297.392700,151.703415 314.646576,162.121429 
	C323.735107,167.609146 332.363525,174.324890 339.878357,181.812286 
	C346.436707,188.346695 351.246185,196.667404 356.636597,204.333694 
	C361.373077,211.069931 368.111664,212.882950 374.525909,208.739075 
	C380.052551,205.168579 381.177643,197.424911 377.155060,190.756119 
	C369.990356,178.878128 362.061676,167.487686 351.120117,158.753250 
	C342.524567,151.891571 333.955353,144.690674 324.402740,139.392365 
	C297.251404,124.332962 268.105560,119.800682 237.350723,124.900551 
	C209.626068,129.497940 185.833115,141.766098 165.677567,160.983475 
	C152.678894,173.377106 142.783676,188.167770 135.680435,204.733963 
	C129.666290,218.760086 125.995163,233.454941 125.124130,248.620209 
	C123.978104,268.573151 126.640808,288.081146 134.010773,306.867828 
	C142.830780,329.350708 156.393784,348.408905 175.187164,363.448090 
	C189.284576,374.729370 205.156799,383.032349 223.469193,388.027222 
M213.994049,184.495270 
	C200.133423,192.775192 190.058746,204.624664 182.790405,218.783020 
	C174.013046,235.880936 171.708664,254.213684 175.080627,273.011627 
	C180.059647,300.768646 195.024017,321.732574 220.043594,334.913208 
	C235.915390,343.274689 252.833282,346.584106 270.964935,344.162018 
	C283.477966,342.490448 294.941376,338.558929 305.758545,332.354401 
	C313.245544,340.618011 317.281891,341.889526 322.681580,337.711975 
	C326.424500,334.816254 325.764313,327.992157 321.069824,320.876312 
	C323.485840,317.978149 325.938629,315.123474 328.296967,312.192780 
	C345.336273,291.018158 350.518097,266.658905 345.555511,240.500107 
	C341.660889,219.970978 331.033173,202.949493 314.369080,189.703766 
	C300.437286,178.629837 284.596588,172.663223 267.241516,171.153976 
	C248.426651,169.517807 230.766006,174.196991 213.994049,184.495270 
M615.812927,229.691528 
	C614.914062,228.591980 614.015198,227.492447 613.073975,226.341064 
	C608.956787,226.341064 604.550842,226.341064 600.350098,226.341064 
	C600.350098,250.080719 600.350098,273.478058 600.350098,296.631409 
	C605.111511,296.631409 609.512817,296.631409 614.000000,296.631409 
	C614.000000,285.603302 613.999878,274.943573 614.000061,264.283844 
	C614.000183,257.619354 613.822876,250.948669 614.055786,244.292328 
	C614.252563,238.669724 617.260132,235.816833 622.108032,236.000198 
	C627.190063,236.192398 628.992798,238.407928 628.997070,244.538040 
	C629.006531,258.033600 629.000000,271.529175 629.000000,285.024719 
	C629.000000,288.954498 629.000000,292.884277 629.000000,296.668945 
	C634.366272,296.668945 639.100586,296.668945 644.000000,296.668945 
	C644.000000,279.190887 643.829407,262.039948 644.171692,244.899261 
	C644.227295,242.115646 645.829346,238.368256 647.979309,236.821304 
	C652.969177,233.230972 659.078003,237.351913 659.031433,244.675339 
	C658.929810,260.669434 658.993835,276.664612 659.010742,292.659363 
	C659.012268,294.080994 659.164368,295.502502 659.239197,296.798035 
	C664.009338,296.798035 668.293762,296.798035 672.992737,296.798035 
	C672.992737,276.986389 673.391296,257.361938 672.818481,237.765915 
	C672.546753,228.468170 666.181274,224.912354 658.275879,224.827148 
	C651.426819,224.753326 646.517395,227.759155 641.999268,232.252213 
	C636.251526,222.242310 623.650635,222.474274 615.812927,229.691528 
M796.665588,305.000000 
	C795.539368,305.059296 794.413208,305.118591 793.319214,305.176208 
	C792.736450,316.336243 795.967285,323.335541 803.899231,325.252594 
	C808.918396,326.465637 814.336060,327.366974 819.396545,326.803925 
	C831.338196,325.475311 837.054260,319.578522 837.019775,306.696472 
	C836.952454,281.537170 837.000000,256.377563 837.000000,231.218063 
	C837.000000,229.601334 837.000000,227.984589 837.000000,226.187836 
	C832.105896,226.187836 827.668213,226.187836 823.253784,226.187836 
	C823.042603,227.559891 822.857910,228.759964 822.595276,230.466553 
	C821.546448,229.721313 821.002197,229.414581 820.553284,229.003708 
	C813.432739,222.487289 804.008240,223.098907 797.980530,230.538681 
	C793.110107,236.549896 793.581177,244.063583 793.211426,250.985031 
	C792.701660,260.525757 793.456726,270.158966 794.073486,279.726562 
	C794.509399,286.488129 797.307129,292.394714 802.994446,296.389709 
	C808.788574,300.459747 817.042297,297.886566 823.000000,290.116852 
	C823.000000,292.006744 823.000183,293.434998 823.000061,294.863220 
	C822.999573,299.861786 823.131836,304.865082 822.955444,309.857422 
	C822.819702,313.699066 820.521851,315.693390 816.709595,316.002655 
	C810.468323,316.508942 807.735535,313.639862 806.505676,305.000000 
	C803.574036,305.000000 800.592651,305.000000 796.665588,305.000000 
M718.602051,238.000000 
	C716.830200,238.000000 715.058411,238.000000 713.285889,238.000000 
	C713.285889,227.057831 713.285889,216.658539 713.285889,205.830994 
	C720.973022,205.830994 728.382874,205.830994 735.680664,205.830994 
	C735.680664,201.321716 735.680664,197.254440 735.680664,193.333984 
	C722.959290,193.333984 710.559448,193.333984 698.342468,193.333984 
	C698.342468,228.063217 698.342468,262.457611 698.342468,296.645447 
	C711.090637,296.645447 723.494080,296.645447 735.624756,296.645447 
	C735.624756,292.549042 735.624756,288.813049 735.624756,284.832275 
	C727.967163,284.832275 720.683228,284.832275 713.229248,284.832275 
	C713.229248,273.173431 713.229248,261.775146 713.229248,249.943909 
	C720.189209,249.943909 726.933655,249.943909 733.738159,249.943909 
	C733.738159,245.771744 733.738159,242.037933 733.738159,238.000000 
	C728.846924,238.000000 724.211548,238.000000 718.602051,238.000000 
M458.000000,280.498138 
	C458.000000,262.424835 458.000000,244.351562 458.000000,225.537308 
	C452.213959,226.051147 447.030762,226.591003 441.834137,226.914017 
	C440.615326,226.989792 439.347137,226.346329 438.108154,226.009857 
	C427.463165,223.118866 419.269806,224.848557 416.034698,237.493576 
	C412.127106,252.767227 412.495667,268.228516 415.073425,283.642883 
	C416.425232,291.726288 425.452728,299.790771 432.796814,297.827820 
	C436.785614,296.761719 440.308289,293.951508 443.896759,292.006287 
	C443.985291,293.317169 444.102631,295.055145 444.213837,296.701965 
	C448.957916,296.701965 453.365051,296.701965 458.000000,296.701965 
	C458.000000,291.436188 458.000000,286.466431 458.000000,280.498138 
M496.000000,262.500549 
	C496.000000,273.921997 496.000000,285.343445 496.000000,296.692444 
	C500.990570,296.692444 505.388824,296.692444 509.998993,296.692444 
	C509.998993,277.425293 510.260437,258.459869 509.899506,239.506317 
	C509.687805,228.387421 501.292908,222.318710 490.491241,225.113617 
	C486.798187,226.069199 483.461884,228.403488 479.929565,230.123962 
	C479.929565,228.696274 479.929565,227.047485 479.929565,225.346588 
	C475.233582,225.346588 470.685974,225.346588 466.337402,225.346588 
	C466.337402,249.412628 466.337402,273.130981 466.337402,296.647705 
	C471.079987,296.647705 475.479767,296.647705 480.000000,296.647705 
	C480.000000,279.987305 479.930878,263.678284 480.072693,247.371109 
	C480.094574,244.857117 480.973328,242.320679 481.653290,239.848953 
	C482.819641,235.609268 486.441925,235.201248 489.559601,236.207779 
	C491.700470,236.898956 494.488770,239.357819 494.771454,241.342285 
	C495.717865,247.985352 495.668213,254.770294 496.000000,262.500549 
M1082.000000,282.495636 
	C1082.000000,287.256714 1082.000000,292.017822 1082.000000,296.688690 
	C1086.999146,296.688690 1091.396973,296.688690 1096.000000,296.688690 
	C1096.000000,294.898987 1096.000000,293.419403 1096.000000,291.939819 
	C1096.000000,276.459045 1095.975342,260.978241 1096.014404,245.497559 
	C1096.026855,240.521240 1098.685791,236.424332 1101.984131,236.001923 
	C1108.096680,235.219086 1109.912598,236.046509 1110.884399,243.296310 
	C1111.973633,251.420914 1111.828003,259.727570 1111.963257,267.959229 
	C1112.120605,277.549011 1112.000000,287.143341 1112.000000,296.708252 
	C1116.960815,296.708252 1121.358521,296.708252 1125.002319,296.708252 
	C1125.002319,276.547028 1124.982788,256.682831 1125.011230,236.818726 
	C1125.023926,227.889725 1115.598755,222.944702 1107.866333,224.736938 
	C1103.696899,225.703323 1099.845581,228.042557 1096.054810,229.674530 
	C1096.010376,228.674316 1095.932983,226.933151 1095.860840,225.311432 
	C1091.015503,225.311432 1086.610107,225.311432 1082.000000,225.311432 
	C1082.000000,244.246918 1082.000000,262.871796 1082.000000,282.495636 
M756.000000,262.500153 
	C756.000000,256.335114 755.936523,250.169220 756.021484,244.005341 
	C756.082031,239.612167 760.047913,235.128738 763.607727,235.204712 
	C768.056274,235.299637 770.944275,238.638794 770.995422,243.785736 
	C771.021851,246.451431 771.000000,249.117615 771.000000,251.783569 
	C771.000000,266.729767 771.000000,281.675934 771.000000,296.757324 
	C775.853760,296.757324 780.253662,296.757324 785.000000,296.757324 
	C785.000000,277.558533 784.968384,258.600250 785.018921,239.642212 
	C785.034485,233.814621 783.261414,228.581894 777.903870,226.143661 
	C772.432068,223.653442 766.404602,223.116043 760.815613,226.679825 
	C759.488159,227.526276 758.131042,228.326157 756.505249,229.320023 
	C756.106445,227.570862 755.811462,226.276932 755.580017,225.261597 
	C750.839355,225.261597 746.568298,225.261597 742.273315,225.261597 
	C742.273315,249.254807 742.273315,272.985413 742.273315,296.708984 
	C746.954163,296.708984 751.355408,296.708984 756.000000,296.708984 
	C756.000000,285.446564 756.000000,274.473297 756.000000,262.500153 
M868.000000,266.500000 
	C868.000000,276.587250 868.000000,286.674530 868.000000,296.695740 
	C872.987854,296.695740 877.384827,296.695740 882.000000,296.695740 
	C882.000000,279.102966 881.979858,261.813416 882.013000,244.523941 
	C882.022278,239.704544 885.768616,235.205811 889.614502,235.200073 
	C894.274292,235.193115 896.989380,238.456833 896.994751,244.169266 
	C897.009766,260.314209 896.993774,276.459167 897.010742,292.604126 
	C897.012207,294.029236 897.164795,295.454224 897.233704,296.646240 
	C902.085022,296.646240 906.484009,296.646240 911.000000,296.646240 
	C911.000000,277.159210 910.920227,258.025238 911.031311,238.892380 
	C911.093323,228.217087 902.523987,222.781952 892.586182,224.940872 
	C889.012390,225.717239 885.754883,227.949295 882.166992,229.602737 
	C882.061951,228.253799 881.942627,226.720978 881.832581,225.307037 
	C877.021912,225.307037 872.617065,225.307037 868.000000,225.307037 
	C868.000000,238.908600 868.000000,252.204300 868.000000,266.500000 
M924.930115,234.525421 
	C917.386841,250.108688 917.273499,266.273132 922.019775,282.476593 
	C926.531250,297.878265 941.381287,302.954071 954.632446,294.017761 
	C962.348694,288.814117 962.412720,280.547150 963.116394,272.360077 
	C958.468994,272.360077 954.276123,272.360077 950.472351,272.360077 
	C949.934631,275.491333 949.973022,278.444366 948.846680,280.852783 
	C947.891785,282.894684 945.623047,285.631775 943.877808,285.674072 
	C941.520630,285.731232 937.612122,284.002167 936.997803,282.162079 
	C935.101990,276.483185 934.454102,270.387695 933.199158,263.813110 
	C944.329407,263.813110 954.068542,263.813110 964.327820,263.813110 
	C963.856384,256.624878 964.019958,249.788971 962.763306,243.224960 
	C961.920166,238.820633 959.717285,234.301971 956.972839,230.714050 
	C951.200317,223.167450 933.069763,221.041092 924.930115,234.525421 
M1003.370667,226.864761 
	C989.927246,221.580276 978.063599,226.467941 973.942139,240.492477 
	C970.300110,252.885757 970.100952,265.442017 972.256775,277.915833 
	C973.123535,282.930695 975.770874,288.102417 978.949463,292.148865 
	C984.292480,298.950653 995.520386,299.949799 1004.061707,295.457886 
	C1011.427551,291.584229 1016.120361,280.988129 1014.378479,272.303650 
	C1010.267822,272.303650 1006.182678,272.303650 1002.378418,272.303650 
	C1001.874084,275.371216 1001.691101,278.174408 1000.906799,280.797791 
	C1000.056824,283.640503 998.783936,286.138672 994.877258,286.096649 
	C991.181091,286.056885 988.732910,284.711395 988.042358,281.182648 
	C986.964539,275.674622 986.262024,270.093140 985.311890,263.972076 
	C996.157654,263.972076 1005.898743,263.972076 1016.323669,263.972076 
	C1015.855164,258.465668 1015.335815,253.446915 1015.020447,248.415390 
	C1014.473633,239.691803 1012.756531,231.617935 1003.370667,226.864761 
M377.000000,272.407654 
	C377.000000,256.668915 377.000000,240.930145 377.000000,225.328735 
	C371.963135,225.328735 367.566406,225.328735 363.000122,225.328735 
	C363.000122,243.784927 362.901001,261.913666 363.046021,280.040466 
	C363.109222,287.941681 368.147430,295.303314 374.816803,296.784424 
	C379.399414,297.802124 384.351837,298.433685 388.949249,297.818909 
	C396.711731,296.780853 403.092163,294.596863 404.965057,283.770508 
	C405.546173,280.411438 405.933319,276.974548 405.954773,273.570435 
	C406.056152,257.484650 406.000000,241.397858 406.000000,225.270172 
	C401.082153,225.270172 396.684875,225.270172 392.000000,225.270172 
	C392.000000,228.834518 392.000000,232.135605 392.000000,235.436676 
	C391.999969,249.251236 392.060638,263.066193 391.971802,276.880188 
	C391.932983,282.919159 389.103973,286.077942 384.235443,285.999939 
	C379.658600,285.926575 377.044037,282.628876 377.001251,276.868683 
	C376.992584,275.703674 377.000000,274.538513 377.000000,272.407654 
M561.000000,253.500000 
	C561.000000,244.076523 561.000000,234.653046 561.000000,225.309174 
	C556.006165,225.309174 551.607910,225.309174 547.001282,225.309174 
	C547.001282,242.246948 546.742004,258.883026 547.162354,275.501923 
	C547.285339,280.364807 548.527039,285.587799 550.701904,289.919800 
	C553.994202,296.477692 566.161194,299.651337 574.733215,297.784668 
	C583.828369,295.804138 589.474670,291.092987 590.030823,281.350800 
	C590.273315,277.104309 590.920105,272.868805 590.954834,268.624786 
	C591.072937,254.196289 591.000000,239.766220 591.000000,225.258881 
	C586.107056,225.258881 581.709412,225.258881 577.000000,225.258881 
	C577.000000,240.800140 577.048279,256.084869 576.955200,271.368744 
	C576.938538,274.105927 576.399170,276.848785 575.991089,279.572540 
	C575.443176,283.229797 574.256958,286.087799 569.627075,286.072296 
	C565.081238,286.057068 562.398926,283.912323 562.082275,279.679993 
	C561.455872,271.306519 561.331787,262.895477 561.000000,253.500000 
M536.000000,281.496643 
	C536.000000,266.729950 536.000000,251.963272 536.000000,237.157181 
	C538.998840,237.022766 541.410889,236.914658 543.676270,236.813126 
	C543.676270,232.954788 543.676270,229.546570 543.676270,226.166443 
	C540.942749,226.017349 538.534607,225.886017 535.719360,225.732483 
	C535.719360,218.900681 535.719360,212.491287 535.719360,206.201355 
	C530.992615,206.201355 526.707520,206.201355 521.998474,206.201355 
	C521.998474,212.799103 521.998474,219.214020 521.998474,226.034180 
	C518.835266,226.034180 516.095154,226.034180 513.244446,226.034180 
	C513.244446,229.865768 513.244446,233.269806 513.244446,237.094116 
	C516.220886,237.094116 518.959473,237.094116 522.115234,237.094116 
	C522.115234,257.250671 522.115234,276.986237 522.115234,296.709045 
	C526.954163,296.709045 531.355469,296.709045 536.000000,296.709045 
	C536.000000,291.778625 536.000000,287.136902 536.000000,281.496643 
M1038.000000,247.840576 
	C1038.840698,237.910202 1047.079468,238.139801 1053.676758,236.581696 
	C1053.676758,232.571457 1053.676758,228.831970 1053.676758,225.279984 
	C1046.030518,223.456879 1041.998901,228.735809 1037.022949,233.938095 
	C1037.022949,230.624710 1037.022949,228.534439 1037.022949,226.358307 
	C1032.166138,226.358307 1027.639038,226.358307 1023.320190,226.358307 
	C1023.320190,250.083069 1023.320190,273.448639 1023.320190,296.670807 
	C1028.040771,296.670807 1032.436035,296.670807 1038.000000,296.670807 
	C1038.000000,280.470734 1038.000000,264.598877 1038.000000,247.840576 
M1063.637695,226.000046 
	C1060.320557,225.343231 1059.921997,227.066589 1059.941284,229.907852 
	C1060.058960,247.223053 1060.000000,264.539429 1060.000000,281.855438 
	C1060.000000,286.797272 1060.000000,291.739136 1060.000000,296.736359 
	C1064.902100,296.736359 1069.300415,296.736359 1073.742920,296.736359 
	C1073.742920,273.086853 1073.742920,249.701920 1073.742920,226.000000 
	C1070.525024,226.000000 1067.560303,226.000000 1063.637695,226.000046 
M860.000000,274.499969 
	C860.000000,258.418793 860.000000,242.337616 860.000000,226.297546 
	C855.027771,226.297546 850.630188,226.297546 846.284241,226.297546 
	C846.284241,249.977158 846.284241,273.358124 846.284241,296.702667 
	C850.973450,296.702667 855.371643,296.702667 860.000000,296.702667 
	C860.000000,289.438477 860.000000,282.469177 860.000000,274.499969 
M1065.208008,136.700165 
	C1068.897095,137.476440 1072.586182,138.252716 1076.275269,139.028992 
	C1076.132568,139.718353 1075.989868,140.407700 1075.847168,141.097061 
	C1071.697510,140.869263 1067.547852,140.641449 1063.413208,140.414474 
	C1062.641113,146.773697 1062.642212,146.749908 1068.817017,147.022034 
	C1069.940552,147.071533 1071.058716,147.371918 1072.167358,147.611435 
	C1077.613159,148.787842 1084.649536,145.279755 1084.869507,140.648651 
	C1085.266968,132.281342 1084.981934,123.881622 1084.981934,114.835213 
	C1081.667603,114.592415 1077.615112,113.913963 1073.600586,114.091888 
	C1067.742310,114.351540 1063.211548,117.268959 1061.541870,123.083862 
	C1060.189819,127.792137 1060.155273,132.598038 1065.208008,136.700165 
M758.000000,123.278854 
	C758.000000,122.280205 758.006287,121.281502 757.998962,120.282906 
	C757.944946,112.917427 755.405273,109.062347 748.084045,107.740967 
	C742.329468,106.702339 736.325073,107.047462 730.043152,106.760124 
	C729.486328,117.164505 728.964783,126.911606 728.424927,137.000000 
	C733.367737,137.000000 738.361877,136.705185 743.307861,137.067780 
	C751.093811,137.638596 757.292969,132.828552 758.000000,123.278854 
M522.983154,107.003136 
	C521.580994,107.369049 520.140442,107.628983 518.783325,108.119545 
	C513.426208,110.056099 509.164581,116.473480 509.000763,122.726898 
	C508.826660,129.372055 511.564697,134.051224 517.954529,136.303024 
	C521.396729,137.516068 525.270752,137.803741 528.968140,137.917557 
	C533.729858,138.064148 534.947144,136.355591 534.487854,130.809464 
	C532.568604,131.088745 530.644714,131.248352 528.778381,131.665237 
	C524.848816,132.542969 519.387085,130.009766 518.242188,126.661362 
	C516.604126,121.870705 518.891174,115.196663 523.236023,114.177277 
	C527.186401,113.250458 531.445374,113.639069 535.263123,113.461952 
	C536.490906,106.447273 531.818604,106.561638 526.872803,106.987679 
	C525.881836,107.073044 524.877319,107.000206 522.983154,107.003136 
M1135.997314,120.032745 
	C1134.420166,115.191727 1130.215332,113.001076 1124.910767,114.015259 
	C1122.171875,114.538895 1119.350708,115.004448 1116.584595,114.918915 
	C1113.142700,114.812492 1111.792603,115.935471 1111.937744,119.494331 
	C1112.170410,125.193062 1112.000122,130.908234 1112.000122,136.780807 
	C1113.793457,136.780807 1116.223511,136.780807 1119.064453,136.780807 
	C1119.410278,132.706970 1119.316284,128.708939 1120.268433,124.977867 
	C1120.679077,123.368744 1123.087524,121.572258 1124.882812,121.167870 
	C1128.017578,120.461731 1128.027954,123.138985 1128.008667,125.408279 
	C1127.976562,129.186646 1127.999878,132.965485 1127.999878,136.685242 
	C1130.968994,136.685242 1133.365234,136.685242 1136.000000,136.685242 
	C1136.000000,131.228836 1136.000000,126.084824 1135.997314,120.032745 
M1041.905640,136.208984 
	C1041.940430,132.715988 1041.352417,129.052124 1042.245972,125.794693 
	C1042.774292,123.868408 1045.645508,122.584801 1047.463257,121.012222 
	C1048.318848,122.722267 1049.719116,124.372452 1049.915039,126.155014 
	C1050.304321,129.695770 1050.030151,133.309464 1050.030151,136.794144 
	C1052.996948,136.794144 1055.278198,136.794144 1057.998047,136.794144 
	C1057.998047,130.817307 1058.260742,125.014961 1057.820923,119.266380 
	C1057.705078,117.750717 1055.499756,115.268135 1054.116089,115.169716 
	C1047.858398,114.724648 1041.551270,114.975166 1034.877197,114.975166 
	C1034.480103,122.526604 1034.111572,129.533508 1033.724487,136.893997 
	C1036.705444,136.893997 1038.986328,136.893997 1041.905640,136.208984 
M537.000427,125.662498 
	C536.395325,135.698044 545.421753,141.159790 557.815125,136.388306 
	C558.023438,134.672333 558.229370,132.975876 558.461609,131.062378 
	C553.800110,130.829544 547.757446,135.120270 544.763184,127.000000 
	C547.734497,127.000000 550.192139,127.000000 552.649719,127.000000 
	C555.065674,127.000000 557.481628,127.000000 559.852417,127.000000 
	C560.203613,117.718521 557.528442,114.058525 550.636353,114.029503 
	C544.085083,114.001907 539.164124,115.439529 537.000427,125.662498 
M760.042480,128.082138 
	C760.292786,128.503311 760.626953,128.896057 760.780762,129.349945 
	C763.101868,136.198929 770.423279,139.967392 776.876099,137.613342 
	C783.914001,135.045868 787.116638,128.447174 784.775330,121.337646 
	C783.106689,116.270790 776.759460,112.970619 770.471497,114.035896 
	C765.074158,114.950287 759.433167,120.103081 760.042480,128.082138 
M832.751892,114.988800 
	C824.490662,116.839760 823.569519,125.041924 825.382568,131.714050 
	C826.859253,137.148682 835.113953,139.534088 842.168274,137.018921 
	C848.156921,134.883759 851.161133,127.397476 848.797607,120.499146 
	C847.017212,115.303085 840.204468,112.788086 832.751892,114.988800 
M631.098328,137.971634 
	C633.263428,137.981049 635.429504,138.034470 637.593506,137.990967 
	C642.551453,137.891266 643.700073,136.522232 643.385315,131.196060 
	C633.212769,132.846176 632.620056,132.662323 630.502625,126.998360 
	C634.546753,126.998360 638.523132,127.194542 642.459167,126.882660 
	C643.691345,126.785027 645.924927,125.067848 645.801453,124.520485 
	C645.175842,121.748268 644.511841,118.618301 642.756287,116.553024 
	C640.097534,113.425247 632.187927,112.962997 628.430115,115.262405 
	C623.229980,118.444412 622.515625,123.514679 622.950928,129.112839 
	C623.323303,133.901825 626.102722,136.340225 631.098328,137.971634 
M563.000000,126.291092 
	C562.619751,129.763947 562.239441,133.236801 561.864929,136.657471 
	C565.052002,136.657471 567.445984,136.657471 569.544800,136.657471 
	C570.070496,132.241577 570.114624,128.071503 571.255981,124.227158 
	C571.688965,122.768715 574.570007,121.790207 576.518677,121.222786 
	C576.943054,121.099213 578.760315,123.616592 578.882935,125.010361 
	C579.220581,128.846176 578.999573,132.731171 578.999573,136.787720 
	C580.754211,136.787720 583.171692,136.787720 585.861633,136.787720 
	C586.250366,131.732040 586.852417,126.863487 586.936096,121.986053 
	C587.020447,117.065781 583.905396,113.919868 578.988831,114.074089 
	C573.772156,114.237709 568.573853,114.984566 563.000000,115.511452 
	C563.000000,118.761185 563.000000,122.051445 563.000000,126.291092 
M871.122192,115.550697 
	C870.850098,117.242249 870.578003,118.933792 870.308777,120.607536 
	C874.165100,122.003021 878.333069,116.324791 882.408203,121.265785 
	C878.479431,122.659294 874.863770,123.579437 871.631165,125.243690 
	C870.054016,126.055672 868.258057,128.236496 868.226685,129.830475 
	C868.181458,132.132080 869.048889,135.792450 870.602783,136.495651 
	C873.518066,137.814911 877.200623,137.496887 880.573792,137.678207 
	C881.034119,137.702957 881.584778,136.197723 882.035217,136.229477 
	C884.610229,136.411026 887.167603,136.843292 890.000000,137.226837 
	C890.000000,134.977753 890.000061,133.660751 890.000000,132.343765 
	C889.999878,128.191605 890.363403,123.991936 889.830200,119.909386 
	C889.599731,118.144623 887.666016,115.385040 886.249146,115.214790 
	C881.509216,114.645226 876.653198,115.040840 871.122192,115.550697 
M1019.000000,125.484688 
	C1018.998718,116.344528 1016.349731,113.380745 1008.500488,114.030296 
	C1004.114441,114.393257 999.752563,115.049728 995.283569,115.585480 
	C994.939941,122.588417 994.591187,129.696976 994.250610,136.638000 
	C997.091064,136.638000 999.484192,136.638000 1001.543945,136.638000 
	C1002.072449,132.195633 1002.170715,128.043594 1003.240356,124.158989 
	C1003.621704,122.774277 1006.284180,121.492126 1008.052795,121.253143 
	C1008.848877,121.145561 1010.710693,123.636246 1010.863098,125.077591 
	C1011.266052,128.889221 1010.999634,132.771637 1010.999634,136.762878 
	C1012.814270,136.762878 1015.228638,136.762878 1017.617920,136.762878 
	C1018.099487,133.150940 1018.549744,129.773819 1019.000000,125.484688 
M960.120789,115.575851 
	C959.947449,117.282944 959.774109,118.990036 959.602417,120.698639 
	C963.333130,122.019119 967.251587,116.415436 971.663696,121.401138 
	C968.584656,122.390076 966.072876,123.174164 963.576050,124.003334 
	C957.877625,125.895706 955.443481,129.789108 957.126648,134.276260 
	C958.223999,137.201645 965.568665,139.476059 969.069153,137.880096 
	C969.830933,137.532761 970.413269,136.201477 971.031677,136.233154 
	C973.606262,136.365005 976.163025,136.844437 978.999634,137.233902 
	C978.999634,130.825226 979.293457,125.328972 978.828369,119.897705 
	C978.680603,118.172150 976.660095,115.383720 975.241211,115.213745 
	C970.497742,114.645493 965.638550,115.042427 960.120789,115.575851 
M926.575562,137.000000 
	C927.993896,136.908142 929.412170,136.816284 931.809570,136.661026 
	C931.809570,128.560455 931.809570,120.814880 931.809570,112.775558 
	C939.479797,115.323822 941.286560,113.996422 940.600708,107.223236 
	C932.211304,107.223236 923.806519,107.223236 915.239380,107.223236 
	C915.239380,109.510468 915.239380,111.570221 915.239380,114.076302 
	C917.870544,114.076302 920.270020,114.076302 922.517456,114.076302 
	C922.517456,121.869240 922.517456,129.207092 922.517456,136.796448 
	C923.384155,136.852692 924.518616,136.926331 926.575562,137.000000 
M797.039795,121.480225 
	C800.255798,121.103065 803.471802,120.725906 806.714111,120.345665 
	C806.733887,114.647888 805.248108,113.573067 797.694214,114.000648 
	C791.761047,114.336502 787.901245,118.187431 787.010437,124.659889 
	C786.196533,130.573898 788.937012,136.269287 794.165771,137.429184 
	C797.448181,138.157333 801.229553,137.486267 804.563232,136.600540 
	C805.528198,136.344147 805.718689,133.172729 806.024292,132.144913 
	C802.127319,131.442322 798.363892,131.765152 796.354553,130.042267 
	C795.059326,128.931641 796.338074,124.819084 797.039795,121.480225 
M813.616882,137.144913 
	C821.469971,139.525894 822.987366,138.585648 823.360474,131.107178 
	C817.063354,133.580338 817.512329,130.020630 818.549744,121.188690 
	C820.283875,121.038467 822.036072,120.886673 823.694092,120.743042 
	C823.694092,118.661049 823.694092,116.922951 823.694092,115.229973 
	C821.964905,115.009323 820.546204,114.828285 819.238770,114.661453 
	C819.008545,112.921989 818.820007,111.497330 818.703003,110.613182 
	C812.310059,107.254150 811.820068,114.373055 808.207886,115.961464 
	C807.693665,116.187569 807.866272,120.194519 808.487427,120.430016 
	C813.151245,122.198090 810.821594,125.483452 810.347412,128.150360 
	C809.735840,131.589844 809.663147,134.664841 813.616882,137.144913 
M592.478394,113.988289 
	C589.031616,115.025711 587.155518,118.589699 589.551575,120.254929 
	C594.085571,123.405983 591.147461,126.774231 591.537842,130.038071 
	C591.805847,132.279053 592.055176,135.781784 593.371704,136.376587 
	C596.144104,137.629089 599.730164,137.956024 602.737244,137.380981 
	C603.933838,137.152161 604.480957,133.527512 605.323792,131.448822 
	C604.772705,131.734802 604.221619,132.020782 603.670532,132.306763 
	C602.121521,131.410751 599.627014,130.836105 599.193604,129.560928 
	C597.640991,124.992859 600.052002,121.464745 604.819031,120.312057 
	C604.819031,118.690849 604.819031,117.075775 604.819031,115.119385 
	C603.265991,115.043541 601.842651,114.974030 600.355652,114.901405 
	C600.059082,113.107094 599.805908,111.575287 599.539001,109.960442 
	C596.758484,110.418106 593.157593,108.501556 592.478394,113.988289 
M902.000061,118.580048 
	C902.232422,114.779579 902.464844,110.979111 902.685242,107.374741 
	C899.876343,107.374741 897.485962,107.374741 895.089661,107.374741 
	C894.520752,117.363953 893.973145,126.978622 893.414185,136.792603 
	C895.723145,136.792603 898.145386,136.792603 902.000000,136.792603 
	C902.000000,130.915985 902.000000,125.234726 902.000061,118.580048 
M861.548645,121.998550 
	C863.550415,121.508141 865.552124,121.017738 867.777710,120.472496 
	C867.777710,118.541328 867.777710,116.463036 867.777710,113.926590 
	C862.724854,114.425987 857.933655,114.899529 853.096924,115.377563 
	C852.642578,122.686623 852.207397,129.687973 851.772705,136.681229 
	C854.981628,136.681229 857.379150,136.681229 859.456238,136.681229 
	C860.015015,131.793320 860.533875,127.254410 861.548645,121.998550 
M951.974365,121.042755 
	C953.570923,120.963966 955.167480,120.885170 956.690186,120.810020 
	C956.690186,118.327202 956.690186,116.254799 956.690186,113.890152 
	C951.680298,114.405609 947.006409,114.886497 942.293396,115.371407 
	C941.805847,122.527908 941.329041,129.526306 940.835632,136.768402 
	C943.810669,136.768402 946.207275,136.768402 947.928894,136.768402 
	C949.056580,131.389481 950.108948,126.370041 951.974365,121.042755 
M617.111572,114.026726 
	C613.815857,114.569725 610.520142,115.112717 607.319336,115.640076 
	C606.907043,122.644272 606.496643,129.615814 606.075684,136.767029 
	C608.832031,136.767029 611.221436,136.767029 613.531311,136.767029 
	C615.544861,130.753479 610.012268,121.196907 621.712158,120.595215 
	C621.712158,118.295578 621.712158,116.214081 621.712158,114.002914 
	C620.270264,114.002914 619.116089,114.002914 617.111572,114.026726 
M700.001465,134.452850 
	C701.448669,139.768921 705.173157,135.763565 707.580017,136.788910 
	C709.386414,130.548981 704.166687,121.331490 715.735229,120.631630 
	C715.735229,118.394646 715.735229,116.303368 715.735229,114.004959 
	C710.779541,114.490044 706.104431,114.947662 701.466675,115.401627 
	C700.979126,121.427071 700.489624,127.476913 700.001465,134.452850 
M845.458130,205.966690 
	C847.196533,211.196655 849.649536,213.251282 854.865601,211.731674 
	C857.323425,211.015656 860.040955,207.724533 860.685791,205.116806 
	C861.517212,201.754486 859.332458,198.563797 855.647644,197.258194 
	C850.512695,195.438782 846.659119,198.395035 845.458130,205.966690 
M1071.272217,197.833374 
	C1069.885010,197.555634 1068.497559,197.041748 1067.110474,197.042801 
	C1062.238770,197.046478 1060.083496,199.300568 1060.000000,204.214798 
	C1059.909912,209.508011 1062.046387,211.714417 1067.032349,212.048233 
	C1070.734863,212.296097 1072.617188,210.452377 1074.189209,207.415833 
	C1076.190552,203.550140 1074.313965,200.948151 1071.272217,197.833374 
M991.000000,121.581978 
	C991.000000,119.479355 991.000000,117.376732 991.000000,115.303383 
	C988.042053,115.303383 985.650818,115.303383 982.838562,115.303383 
	C982.838562,122.623085 982.838562,129.646027 982.838562,136.716309 
	C985.246277,136.716309 987.975830,136.716309 991.000000,136.716309 
	C991.000000,131.813766 991.000000,127.188934 991.000000,121.581978 
M1108.998901,118.428619 
	C1108.529785,111.397728 1103.837646,116.458755 1101.241211,115.072670 
	C1100.740112,122.682556 1100.280884,129.656403 1099.815430,136.722778 
	C1102.914673,136.722778 1105.302979,136.722778 1107.485962,136.722778 
	C1108.004639,130.734909 1108.498047,125.039543 1108.998901,118.428619 
M1030.998535,117.583160 
	C1029.643921,112.193047 1025.845703,116.287498 1023.312622,115.084312 
	C1022.872437,122.699921 1022.462769,129.788315 1022.058472,136.783081 
	C1025.042358,136.783081 1027.314697,136.783081 1029.560059,136.783081 
	C1030.051514,130.548706 1030.525757,124.530968 1030.998535,117.583160 
M1108.225830,107.094612 
	C1105.952759,107.094612 1103.679688,107.094612 1101.220703,107.094612 
	C1101.220703,109.150734 1101.220703,110.874641 1101.220703,112.772514 
	C1103.835083,112.772514 1106.228760,112.772514 1108.895020,112.772514 
	C1108.895020,110.937317 1108.895020,109.325508 1108.225830,107.094612 
M1030.212646,112.906708 
	C1030.546143,111.103912 1030.879639,109.301117 1031.264160,107.222130 
	C1028.175659,107.222130 1025.783447,107.222130 1023.228943,107.222130 
	C1023.228943,109.168510 1023.228943,110.891678 1023.228943,112.989326 
	C1025.396729,112.989326 1027.343018,112.989326 1030.212646,112.906708 
M984.010864,111.339561 
	C986.101929,111.837509 988.368591,113.031364 990.216431,112.565140 
	C991.277466,112.297417 991.659302,109.337517 992.346924,107.589561 
	C991.992615,107.353142 991.638306,107.116730 991.283997,106.880310 
	C989.111023,108.664360 984.044617,103.633804 984.010864,111.339561 
z"/>
<path fill="#89A5AC" opacity="1.000000" stroke="none" 
	d="
M279.531342,1.000000 
	C283.971985,1.659052 287.925476,2.472431 291.919037,2.951605 
	C314.422821,5.651761 336.007538,11.750973 356.886871,20.441437 
	C376.735748,28.702982 395.443848,39.076313 412.513550,52.139446 
	C430.850098,66.172066 447.140656,82.305138 461.299164,100.661209 
	C476.722839,120.657509 489.093292,142.289520 497.833252,165.929932 
	C502.250092,177.876923 496.081604,188.742386 483.735077,191.589828 
	C475.969696,193.380768 466.028473,189.234879 462.320496,179.444717 
	C454.137054,157.838135 442.887177,137.921341 428.338898,120.158623 
	C411.269073,99.317223 391.247345,81.600494 367.612244,68.194374 
	C349.159851,57.727966 329.896057,49.178040 309.157959,44.781822 
	C295.699219,41.928734 281.903107,40.441223 268.184631,39.086708 
	C240.682114,36.371216 214.123703,41.567066 188.075455,49.926815 
	C164.299835,57.557205 142.691666,69.530548 123.051277,84.705650 
	C99.530685,102.878761 80.728264,125.292747 66.188202,151.345703 
	C53.784447,173.570801 45.791531,197.281204 41.211941,222.163803 
	C39.726151,230.236633 39.367844,238.565689 39.081249,246.798004 
	C38.731621,256.840942 38.060268,267.016602 39.232288,276.933472 
	C40.826469,290.422394 43.274502,303.919342 46.713852,317.057495 
	C53.017109,341.135651 63.802746,363.279877 78.137146,383.690277 
	C92.799225,404.567230 110.392464,422.394836 131.254257,437.183441 
	C149.166687,449.881287 168.376984,460.030914 189.258331,466.356506 
	C203.792450,470.759338 218.948746,473.282013 233.961136,475.865906 
	C242.703522,477.370636 251.744431,478.196014 260.591675,477.842316 
	C289.223785,476.697662 316.970276,471.267273 343.526642,459.912537 
	C374.033173,446.868835 400.025635,427.722961 422.118744,403.237427 
	C432.945618,391.238129 442.343323,378.052460 449.678223,363.582886 
	C454.207977,354.647034 457.664886,345.148407 462.464783,336.373566 
	C467.530182,327.113251 474.022339,322.353058 486.227570,326.019806 
	C495.847321,328.909821 500.684448,337.987885 498.119690,347.764832 
	C494.189575,362.746674 486.664001,376.131775 479.021027,389.399567 
	C466.037506,411.938263 449.431030,431.629303 430.278229,449.120148 
	C416.009338,462.150909 400.416870,473.513000 383.434387,482.782898 
	C361.245422,494.894745 337.947174,504.313080 313.102448,509.349884 
	C302.331299,511.533508 291.350342,512.682129 280.232330,514.650452 
	C265.312439,515.000000 250.624878,515.000000 235.239456,514.652100 
	C223.660477,512.687866 212.650833,511.663879 201.923950,509.336609 
	C176.529968,503.827179 152.565369,494.447845 129.952087,481.526367 
	C101.505608,465.271698 76.943779,444.470917 56.576565,418.893036 
	C40.702675,398.958038 27.938484,377.088654 18.674583,353.269989 
	C11.810318,335.621155 6.401904,317.584351 3.940006,298.734528 
	C3.164442,292.796326 1.991220,286.910034 1.000000,281.000000 
	C1.000000,265.979095 1.000000,250.958206 1.348011,235.239258 
	C3.241330,223.811584 4.118644,212.933426 6.464995,202.381943 
	C12.099915,177.041916 21.319729,153.008148 34.204559,130.375458 
	C49.320206,103.824287 68.392532,80.522781 91.750839,60.953796 
	C113.071014,43.092289 136.626877,28.666948 162.727234,18.669756 
	C180.404388,11.898896 198.381134,6.281617 217.264893,3.934252 
	C223.206360,3.195690 229.089935,1.991224 235.000000,1.000000 
	C249.687561,1.000000 264.375122,1.000000 279.531342,1.000000 
z"/>
<path fill="#FFFFFF" opacity="1.000000" stroke="none" 
	d="
M1.000000,281.468658 
	C1.991220,286.910034 3.164442,292.796326 3.940006,298.734528 
	C6.401904,317.584351 11.810318,335.621155 18.674583,353.269989 
	C27.938484,377.088654 40.702675,398.958038 56.576565,418.893036 
	C76.943779,444.470917 101.505608,465.271698 129.952087,481.526367 
	C152.565369,494.447845 176.529968,503.827179 201.923950,509.336609 
	C212.650833,511.663879 223.660477,512.687866 234.770798,514.652100 
	C157.072968,515.000000 79.145927,515.000000 1.000000,515.000000 
	C1.000000,437.312561 1.000000,359.624939 1.000000,281.468658 
z"/>
<path fill="#FFFFFF" opacity="1.000000" stroke="none" 
	d="
M234.531342,1.000000 
	C229.089935,1.991224 223.206360,3.195690 217.264893,3.934252 
	C198.381134,6.281617 180.404388,11.898896 162.727234,18.669756 
	C136.626877,28.666948 113.071014,43.092289 91.750839,60.953796 
	C68.392532,80.522781 49.320206,103.824287 34.204559,130.375458 
	C21.319729,153.008148 12.099915,177.041916 6.464995,202.381943 
	C4.118644,212.933426 3.241330,223.811584 1.348011,234.770599 
	C1.000000,157.072952 1.000000,79.145912 1.000000,1.000000 
	C78.687424,1.000000 156.375061,1.000000 234.531342,1.000000 
z"/>
<path fill="#003D4C" opacity="1.000000" stroke="none" 
	d="
M1177.000000,313.531342 
	C1170.684570,326.836823 1153.422485,331.589752 1140.691284,323.868927 
	C1136.697021,321.446564 1134.691772,317.541656 1134.017578,312.980621 
	C1133.662109,310.575073 1133.465820,308.145996 1133.157837,305.367798 
	C1137.462769,305.367798 1141.842529,305.367798 1146.598633,305.367798 
	C1147.060303,307.160034 1147.228271,309.489319 1148.234741,311.369720 
	C1150.311035,315.248627 1153.808960,317.023285 1158.171753,315.859283 
	C1162.041992,314.826721 1163.403931,312.131500 1163.098755,307.992737 
	C1162.697144,302.549164 1163.000000,297.053589 1163.000000,292.236298 
	C1159.471680,294.117737 1156.031860,296.941925 1152.155640,297.803741 
	C1145.062988,299.380737 1138.062012,294.634674 1136.134766,286.624207 
	C1132.074707,269.747559 1131.628540,252.587967 1135.922974,235.715469 
	C1138.870117,224.136276 1151.911621,220.839172 1161.191284,228.647705 
	C1161.413452,228.834625 1161.805054,228.820343 1161.759033,228.808624 
	C1165.844604,223.465652 1171.447876,227.102325 1176.534424,226.000000 
	C1177.000000,255.020889 1177.000000,284.041779 1177.000000,313.531342 
M1163.000122,254.535400 
	C1162.647339,249.983444 1162.711548,245.349091 1161.832397,240.901184 
	C1160.821045,235.784576 1155.376465,234.187378 1152.527100,238.307999 
	C1150.401367,241.382278 1149.764160,245.608505 1148.920166,249.422668 
	C1146.721436,259.358704 1148.247070,269.216705 1149.945801,279.055328 
	C1150.590576,282.790222 1152.661499,285.196747 1156.424072,284.878662 
	C1159.785889,284.594421 1161.753784,281.990753 1161.959961,278.646973 
	C1162.434692,270.947662 1162.668457,263.233490 1163.000122,254.535400 
z"/>
<path fill="#89A5AC" opacity="1.000000" stroke="none" 
	d="
M386.229889,116.729530 
	C406.064270,135.003418 421.686829,155.927902 432.601196,180.248169 
	C434.919891,185.414810 435.828949,190.571350 432.559570,196.097275 
	C427.275574,205.028442 411.962097,204.318588 407.173065,193.220779 
	C400.917114,178.723602 392.390533,165.774567 382.293091,153.659561 
	C367.531494,135.948456 349.633881,122.399101 328.959167,112.573944 
	C312.242462,104.629761 294.713318,99.586304 276.070587,97.803055 
	C252.303848,95.529678 229.360031,98.148628 206.918060,105.943825 
	C180.946609,114.964966 158.776459,129.862473 140.403427,150.200287 
	C122.303200,170.236099 110.281883,193.663284 103.629623,219.802612 
	C99.650764,235.437134 97.981888,251.411697 99.115189,267.472900 
	C100.656105,289.310730 106.032692,310.292358 116.011795,329.877106 
	C125.854332,349.193787 138.919403,365.910400 155.449005,380.200653 
	C174.834412,396.959869 197.020493,407.919403 221.426224,414.587463 
	C237.812332,419.064423 254.781555,420.189240 271.635193,418.843475 
	C302.477203,416.380707 330.742798,406.103699 355.642548,387.589722 
	C374.283569,373.729431 389.369202,356.606750 400.601471,336.096130 
	C403.401154,330.983795 405.184692,325.027649 411.833405,322.321594 
	C417.924316,319.842590 422.866211,321.520233 427.004913,324.908722 
	C431.331451,328.451050 432.776764,334.117920 430.118958,339.354156 
	C425.444000,348.564453 420.772308,357.898468 414.924194,366.369385 
	C393.226227,397.798523 364.447662,420.387329 328.719543,434.220581 
	C312.656647,440.439880 296.246063,444.386200 279.094574,446.132690 
	C248.956985,449.201538 219.741791,445.604279 191.622025,434.663910 
	C171.894287,426.988617 153.905701,416.195587 137.654510,402.333954 
	C110.151611,378.874908 90.524620,350.239410 80.097969,315.731201 
	C76.138229,302.626038 73.787300,288.883911 72.144348,275.258331 
	C67.580330,237.407318 75.880394,201.887589 93.323181,168.270309 
	C104.137253,147.428497 118.848282,129.518494 136.456009,114.322754 
	C161.446106,92.755913 190.613953,78.988731 222.941757,72.134224 
	C239.923691,68.533508 257.220306,68.107780 274.397217,69.181107 
	C296.880157,70.585983 318.379150,76.525848 338.958099,85.911880 
	C356.195587,93.773888 371.689911,104.157318 386.229889,116.729530 
z"/>
<path fill="#89A5AC" opacity="1.000000" stroke="none" 
	d="
M223.057098,388.004517 
	C205.156799,383.032349 189.284576,374.729370 175.187164,363.448090 
	C156.393784,348.408905 142.830780,329.350708 134.010773,306.867828 
	C126.640808,288.081146 123.978104,268.573151 125.124130,248.620209 
	C125.995163,233.454941 129.666290,218.760086 135.680435,204.733963 
	C142.783676,188.167770 152.678894,173.377106 165.677567,160.983475 
	C185.833115,141.766098 209.626068,129.497940 237.350723,124.900551 
	C268.105560,119.800682 297.251404,124.332962 324.402740,139.392365 
	C333.955353,144.690674 342.524567,151.891571 351.120117,158.753250 
	C362.061676,167.487686 369.990356,178.878128 377.155060,190.756119 
	C381.177643,197.424911 380.052551,205.168579 374.525909,208.739075 
	C368.111664,212.882950 361.373077,211.069931 356.636597,204.333694 
	C351.246185,196.667404 346.436707,188.346695 339.878357,181.812286 
	C332.363525,174.324890 323.735107,167.609146 314.646576,162.121429 
	C297.392700,151.703415 278.267944,146.529617 258.040527,147.123596 
	C242.668961,147.574966 227.831131,150.931442 213.717377,157.550720 
	C201.300110,163.374344 190.182693,170.888077 180.806076,180.784485 
	C164.894608,197.578049 154.733887,217.269272 150.890732,240.307449 
	C145.586121,272.106476 153.466919,300.662384 172.653992,325.785461 
	C190.130341,348.668518 213.792084,362.164673 242.425156,367.133331 
	C270.709503,372.041504 296.492157,365.555725 320.288361,350.700806 
	C332.937744,342.804352 343.371918,332.102295 351.738556,319.587677 
	C356.327026,312.724365 363.794678,310.885864 370.117065,315.041992 
	C375.462006,318.555542 376.810791,326.508484 372.561218,332.766602 
	C356.564667,356.323608 335.406311,373.519165 308.818756,383.970184 
	C290.221039,391.280579 270.863983,394.065277 251.079773,392.816162 
	C241.812408,392.231049 232.668854,389.684723 223.057098,388.004517 
z"/>
<path fill="#003D4C" opacity="1.000000" stroke="none" 
	d="
M214.264740,184.236099 
	C230.766006,174.196991 248.426651,169.517807 267.241516,171.153976 
	C284.596588,172.663223 300.437286,178.629837 314.369080,189.703766 
	C331.033173,202.949493 341.660889,219.970978 345.555511,240.500107 
	C350.518097,266.658905 345.336273,291.018158 328.296967,312.192780 
	C325.938629,315.123474 323.485840,317.978149 321.069824,320.876312 
	C325.764313,327.992157 326.424500,334.816254 322.681580,337.711975 
	C317.281891,341.889526 313.245544,340.618011 305.758545,332.354401 
	C294.941376,338.558929 283.477966,342.490448 270.964935,344.162018 
	C252.833282,346.584106 235.915390,343.274689 220.043594,334.913208 
	C195.024017,321.732574 180.059647,300.768646 175.080627,273.011627 
	C171.708664,254.213684 174.013046,235.880936 182.790405,218.783020 
	C190.058746,204.624664 200.133423,192.775192 214.264740,184.236099 
M219.017075,211.474899 
	C211.834930,218.056763 206.165512,225.631927 202.574600,234.817184 
	C193.647141,257.652863 197.410416,278.896790 212.307220,297.486084 
	C231.580750,321.536987 264.752563,326.953094 290.678925,312.444946 
	C283.744843,302.638306 283.231903,298.640472 288.335602,294.179565 
	C292.882050,290.205780 295.206909,291.092987 305.856110,301.000641 
	C306.493927,300.245300 307.171722,299.505341 307.780457,298.712372 
	C318.977051,284.126953 325.100189,268.230530 322.129669,249.349289 
	C320.176819,236.936768 315.499908,225.945068 307.162018,216.811752 
	C292.984894,201.282135 275.477783,193.695236 254.070038,195.937225 
	C240.878433,197.318756 229.521088,202.466354 219.017075,211.474899 
z"/>
<path fill="#003D4C" opacity="1.000000" stroke="none" 
	d="
M616.085693,229.394211 
	C623.650635,222.474274 636.251526,222.242310 641.999268,232.252213 
	C646.517395,227.759155 651.426819,224.753326 658.275879,224.827148 
	C666.181274,224.912354 672.546753,228.468170 672.818481,237.765915 
	C673.391296,257.361938 672.992737,276.986389 672.992737,296.798035 
	C668.293762,296.798035 664.009338,296.798035 659.239197,296.798035 
	C659.164368,295.502502 659.012268,294.080994 659.010742,292.659363 
	C658.993835,276.664612 658.929810,260.669434 659.031433,244.675339 
	C659.078003,237.351913 652.969177,233.230972 647.979309,236.821304 
	C645.829346,238.368256 644.227295,242.115646 644.171692,244.899261 
	C643.829407,262.039948 644.000000,279.190887 644.000000,296.668945 
	C639.100586,296.668945 634.366272,296.668945 629.000000,296.668945 
	C629.000000,292.884277 629.000000,288.954498 629.000000,285.024719 
	C629.000000,271.529175 629.006531,258.033600 628.997070,244.538040 
	C628.992798,238.407928 627.190063,236.192398 622.108032,236.000198 
	C617.260132,235.816833 614.252563,238.669724 614.055786,244.292328 
	C613.822876,250.948669 614.000183,257.619354 614.000061,264.283844 
	C613.999878,274.943573 614.000000,285.603302 614.000000,296.631409 
	C609.512817,296.631409 605.111511,296.631409 600.350098,296.631409 
	C600.350098,273.478058 600.350098,250.080719 600.350098,226.341064 
	C604.550842,226.341064 608.956787,226.341064 613.073975,226.341064 
	C614.015198,227.492447 614.914062,228.591980 616.085693,229.394211 
z"/>
<path fill="#003D4C" opacity="1.000000" stroke="none" 
	d="
M797.138428,305.000000 
	C800.592651,305.000000 803.574036,305.000000 806.505676,305.000000 
	C807.735535,313.639862 810.468323,316.508942 816.709595,316.002655 
	C820.521851,315.693390 822.819702,313.699066 822.955444,309.857422 
	C823.131836,304.865082 822.999573,299.861786 823.000061,294.863220 
	C823.000183,293.434998 823.000000,292.006744 823.000000,290.116852 
	C817.042297,297.886566 808.788574,300.459747 802.994446,296.389709 
	C797.307129,292.394714 794.509399,286.488129 794.073486,279.726562 
	C793.456726,270.158966 792.701660,260.525757 793.211426,250.985031 
	C793.581177,244.063583 793.110107,236.549896 797.980530,230.538681 
	C804.008240,223.098907 813.432739,222.487289 820.553284,229.003708 
	C821.002197,229.414581 821.546448,229.721313 822.595276,230.466553 
	C822.857910,228.759964 823.042603,227.559891 823.253784,226.187836 
	C827.668213,226.187836 832.105896,226.187836 837.000000,226.187836 
	C837.000000,227.984589 837.000000,229.601334 837.000000,231.218063 
	C837.000000,256.377563 836.952454,281.537170 837.019775,306.696472 
	C837.054260,319.578522 831.338196,325.475311 819.396545,326.803925 
	C814.336060,327.366974 808.918396,326.465637 803.899231,325.252594 
	C795.967285,323.335541 792.736450,316.336243 793.319214,305.176208 
	C794.413208,305.118591 795.539368,305.059296 797.138428,305.000000 
M808.000000,261.484070 
	C808.503845,267.332336 808.488159,273.297302 809.762756,278.972443 
	C810.285278,281.298859 813.491150,284.496613 815.658203,284.645111 
	C819.183777,284.886688 821.882324,281.779114 821.937256,277.907379 
	C822.104126,266.134430 822.266052,254.345612 821.753052,242.592514 
	C821.654419,240.332474 818.803406,237.716400 816.573120,236.255249 
	C815.655334,235.653931 812.558899,237.245163 811.297119,238.615784 
	C809.996765,240.028412 809.296875,242.340607 809.082703,244.339432 
	C808.507996,249.701736 808.333435,255.106934 808.000000,261.484070 
z"/>
<path fill="#003D4C" opacity="1.000000" stroke="none" 
	d="
M719.089111,238.000000 
	C724.211548,238.000000 728.846924,238.000000 733.738159,238.000000 
	C733.738159,242.037933 733.738159,245.771744 733.738159,249.943909 
	C726.933655,249.943909 720.189209,249.943909 713.229248,249.943909 
	C713.229248,261.775146 713.229248,273.173431 713.229248,284.832275 
	C720.683228,284.832275 727.967163,284.832275 735.624756,284.832275 
	C735.624756,288.813049 735.624756,292.549042 735.624756,296.645447 
	C723.494080,296.645447 711.090637,296.645447 698.342468,296.645447 
	C698.342468,262.457611 698.342468,228.063217 698.342468,193.333984 
	C710.559448,193.333984 722.959290,193.333984 735.680664,193.333984 
	C735.680664,197.254440 735.680664,201.321716 735.680664,205.830994 
	C728.382874,205.830994 720.973022,205.830994 713.285889,205.830994 
	C713.285889,216.658539 713.285889,227.057831 713.285889,238.000000 
	C715.058411,238.000000 716.830200,238.000000 719.089111,238.000000 
z"/>
<path fill="#003D4C" opacity="1.000000" stroke="none" 
	d="
M458.000000,280.997375 
	C458.000000,286.466431 458.000000,291.436188 458.000000,296.701965 
	C453.365051,296.701965 448.957916,296.701965 444.213837,296.701965 
	C444.102631,295.055145 443.985291,293.317169 443.896759,292.006287 
	C440.308289,293.951508 436.785614,296.761719 432.796814,297.827820 
	C425.452728,299.790771 416.425232,291.726288 415.073425,283.642883 
	C412.495667,268.228516 412.127106,252.767227 416.034698,237.493576 
	C419.269806,224.848557 427.463165,223.118866 438.108154,226.009857 
	C439.347137,226.346329 440.615326,226.989792 441.834137,226.914017 
	C447.030762,226.591003 452.213959,226.051147 458.000000,225.537308 
	C458.000000,244.351562 458.000000,262.424835 458.000000,280.997375 
M440.475281,283.014038 
	C441.313904,281.473083 442.851837,279.944641 442.879669,278.389191 
	C443.087646,266.764587 443.046570,255.134354 442.973083,243.506592 
	C442.947327,239.432602 440.647308,237.185623 436.604126,237.032608 
	C432.712067,236.885315 430.375793,239.091965 430.065704,242.801392 
	C429.505432,249.503189 429.103882,256.236420 429.072632,262.958527 
	C429.047546,268.353149 429.445801,273.776367 430.063110,279.140076 
	C430.718170,284.832153 434.722504,286.514679 440.475281,283.014038 
z"/>
<path fill="#003D4C" opacity="1.000000" stroke="none" 
	d="
M496.000000,262.000732 
	C495.668213,254.770294 495.717865,247.985352 494.771454,241.342285 
	C494.488770,239.357819 491.700470,236.898956 489.559601,236.207779 
	C486.441925,235.201248 482.819641,235.609268 481.653290,239.848953 
	C480.973328,242.320679 480.094574,244.857117 480.072693,247.371109 
	C479.930878,263.678284 480.000000,279.987305 480.000000,296.647705 
	C475.479767,296.647705 471.079987,296.647705 466.337402,296.647705 
	C466.337402,273.130981 466.337402,249.412628 466.337402,225.346588 
	C470.685974,225.346588 475.233582,225.346588 479.929565,225.346588 
	C479.929565,227.047485 479.929565,228.696274 479.929565,230.123962 
	C483.461884,228.403488 486.798187,226.069199 490.491241,225.113617 
	C501.292908,222.318710 509.687805,228.387421 509.899506,239.506317 
	C510.260437,258.459869 509.998993,277.425293 509.998993,296.692444 
	C505.388824,296.692444 500.990570,296.692444 496.000000,296.692444 
	C496.000000,285.343445 496.000000,273.921997 496.000000,262.000732 
z"/>
<path fill="#003D4C" opacity="1.000000" stroke="none" 
	d="
M1082.000000,281.996155 
	C1082.000000,262.871796 1082.000000,244.246918 1082.000000,225.311432 
	C1086.610107,225.311432 1091.015503,225.311432 1095.860840,225.311432 
	C1095.932983,226.933151 1096.010376,228.674316 1096.054810,229.674530 
	C1099.845581,228.042557 1103.696899,225.703323 1107.866333,224.736938 
	C1115.598755,222.944702 1125.023926,227.889725 1125.011230,236.818726 
	C1124.982788,256.682831 1125.002319,276.547028 1125.002319,296.708252 
	C1121.358521,296.708252 1116.960815,296.708252 1112.000000,296.708252 
	C1112.000000,287.143341 1112.120605,277.549011 1111.963257,267.959229 
	C1111.828003,259.727570 1111.973633,251.420914 1110.884399,243.296310 
	C1109.912598,236.046509 1108.096680,235.219086 1101.984131,236.001923 
	C1098.685791,236.424332 1096.026855,240.521240 1096.014404,245.497559 
	C1095.975342,260.978241 1096.000000,276.459045 1096.000000,291.939819 
	C1096.000000,293.419403 1096.000000,294.898987 1096.000000,296.688690 
	C1091.396973,296.688690 1086.999146,296.688690 1082.000000,296.688690 
	C1082.000000,292.017822 1082.000000,287.256714 1082.000000,281.996155 
z"/>
<path fill="#003D4C" opacity="1.000000" stroke="none" 
	d="
M756.000000,263.000122 
	C756.000000,274.473297 756.000000,285.446564 756.000000,296.708984 
	C751.355408,296.708984 746.954163,296.708984 742.273315,296.708984 
	C742.273315,272.985413 742.273315,249.254807 742.273315,225.261597 
	C746.568298,225.261597 750.839355,225.261597 755.580017,225.261597 
	C755.811462,226.276932 756.106445,227.570862 756.505249,229.320023 
	C758.131042,228.326157 759.488159,227.526276 760.815613,226.679825 
	C766.404602,223.116043 772.432068,223.653442 777.903870,226.143661 
	C783.261414,228.581894 785.034485,233.814621 785.018921,239.642212 
	C784.968384,258.600250 785.000000,277.558533 785.000000,296.757324 
	C780.253662,296.757324 775.853760,296.757324 771.000000,296.757324 
	C771.000000,281.675934 771.000000,266.729767 771.000000,251.783569 
	C771.000000,249.117615 771.021851,246.451431 770.995422,243.785736 
	C770.944275,238.638794 768.056274,235.299637 763.607727,235.204712 
	C760.047913,235.128738 756.082031,239.612167 756.021484,244.005341 
	C755.936523,250.169220 756.000000,256.335114 756.000000,263.000122 
z"/>
<path fill="#003D4C" opacity="1.000000" stroke="none" 
	d="
M868.000000,266.000000 
	C868.000000,252.204300 868.000000,238.908600 868.000000,225.307037 
	C872.617065,225.307037 877.021912,225.307037 881.832581,225.307037 
	C881.942627,226.720978 882.061951,228.253799 882.166992,229.602737 
	C885.754883,227.949295 889.012390,225.717239 892.586182,224.940872 
	C902.523987,222.781952 911.093323,228.217087 911.031311,238.892380 
	C910.920227,258.025238 911.000000,277.159210 911.000000,296.646240 
	C906.484009,296.646240 902.085022,296.646240 897.233704,296.646240 
	C897.164795,295.454224 897.012207,294.029236 897.010742,292.604126 
	C896.993774,276.459167 897.009766,260.314209 896.994751,244.169266 
	C896.989380,238.456833 894.274292,235.193115 889.614502,235.200073 
	C885.768616,235.205811 882.022278,239.704544 882.013000,244.523941 
	C881.979858,261.813416 882.000000,279.102966 882.000000,296.695740 
	C877.384827,296.695740 872.987854,296.695740 868.000000,296.695740 
	C868.000000,286.674530 868.000000,276.587250 868.000000,266.000000 
z"/>
<path fill="#003D4C" opacity="1.000000" stroke="none" 
	d="
M924.979126,234.151855 
	C933.069763,221.041092 951.200317,223.167450 956.972839,230.714050 
	C959.717285,234.301971 961.920166,238.820633 962.763306,243.224960 
	C964.019958,249.788971 963.856384,256.624878 964.327820,263.813110 
	C954.068542,263.813110 944.329407,263.813110 933.199158,263.813110 
	C934.454102,270.387695 935.101990,276.483185 936.997803,282.162079 
	C937.612122,284.002167 941.520630,285.731232 943.877808,285.674072 
	C945.623047,285.631775 947.891785,282.894684 948.846680,280.852783 
	C949.973022,278.444366 949.934631,275.491333 950.472351,272.360077 
	C954.276123,272.360077 958.468994,272.360077 963.116394,272.360077 
	C962.412720,280.547150 962.348694,288.814117 954.632446,294.017761 
	C941.381287,302.954071 926.531250,297.878265 922.019775,282.476593 
	C917.273499,266.273132 917.386841,250.108688 924.979126,234.151855 
M934.999390,244.499039 
	C934.594666,247.166718 934.189941,249.834412 933.762024,252.655029 
	C939.551636,252.655029 944.731506,252.655029 949.657410,252.655029 
	C949.421936,249.411453 949.678894,246.362473 948.873840,243.625885 
	C947.985291,240.605499 946.854248,236.629486 944.536255,235.264282 
	C939.244995,232.147919 935.351318,236.970825 934.999390,244.499039 
z"/>
<path fill="#003D4C" opacity="1.000000" stroke="none" 
	d="
M1003.758423,226.940765 
	C1012.756531,231.617935 1014.473633,239.691803 1015.020447,248.415390 
	C1015.335815,253.446915 1015.855164,258.465668 1016.323669,263.972076 
	C1005.898743,263.972076 996.157654,263.972076 985.311890,263.972076 
	C986.262024,270.093140 986.964539,275.674622 988.042358,281.182648 
	C988.732910,284.711395 991.181091,286.056885 994.877258,286.096649 
	C998.783936,286.138672 1000.056824,283.640503 1000.906799,280.797791 
	C1001.691101,278.174408 1001.874084,275.371216 1002.378418,272.303650 
	C1006.182678,272.303650 1010.267822,272.303650 1014.378479,272.303650 
	C1016.120361,280.988129 1011.427551,291.584229 1004.061707,295.457886 
	C995.520386,299.949799 984.292480,298.950653 978.949463,292.148865 
	C975.770874,288.102417 973.123535,282.930695 972.256775,277.915833 
	C970.100952,265.442017 970.300110,252.885757 973.942139,240.492477 
	C978.063599,226.467941 989.927246,221.580276 1003.758423,226.940765 
M986.000000,248.639801 
	C986.089111,250.047150 986.178284,251.454483 986.255737,252.677505 
	C991.409302,252.677505 996.126526,252.677505 1001.425781,252.677505 
	C1000.921326,248.118729 1001.065369,243.737305 999.767395,239.835571 
	C998.996765,237.518936 996.135986,234.742920 993.880798,234.405228 
	C991.701782,234.078995 988.142883,235.269272 987.849182,239.322144 
	C987.644043,242.153046 986.644836,244.926407 986.000000,248.639801 
z"/>
<path fill="#003D4C" opacity="1.000000" stroke="none" 
	d="
M377.000000,272.890564 
	C377.000000,274.538513 376.992584,275.703674 377.001251,276.868683 
	C377.044037,282.628876 379.658600,285.926575 384.235443,285.999939 
	C389.103973,286.077942 391.932983,282.919159 391.971802,276.880188 
	C392.060638,263.066193 391.999969,249.251236 392.000000,235.436676 
	C392.000000,232.135605 392.000000,228.834518 392.000000,225.270172 
	C396.684875,225.270172 401.082153,225.270172 406.000000,225.270172 
	C406.000000,241.397858 406.056152,257.484650 405.954773,273.570435 
	C405.933319,276.974548 405.546173,280.411438 404.965057,283.770508 
	C403.092163,294.596863 396.711731,296.780853 388.949249,297.818909 
	C384.351837,298.433685 379.399414,297.802124 374.816803,296.784424 
	C368.147430,295.303314 363.109222,287.941681 363.046021,280.040466 
	C362.901001,261.913666 363.000122,243.784927 363.000122,225.328735 
	C367.566406,225.328735 371.963135,225.328735 377.000000,225.328735 
	C377.000000,240.930145 377.000000,256.668915 377.000000,272.890564 
z"/>
<path fill="#003D4C" opacity="1.000000" stroke="none" 
	d="
M561.000000,254.000000 
	C561.331787,262.895477 561.455872,271.306519 562.082275,279.679993 
	C562.398926,283.912323 565.081238,286.057068 569.627075,286.072296 
	C574.256958,286.087799 575.443176,283.229797 575.991089,279.572540 
	C576.399170,276.848785 576.938538,274.105927 576.955200,271.368744 
	C577.048279,256.084869 577.000000,240.800140 577.000000,225.258881 
	C581.709412,225.258881 586.107056,225.258881 591.000000,225.258881 
	C591.000000,239.766220 591.072937,254.196289 590.954834,268.624786 
	C590.920105,272.868805 590.273315,277.104309 590.030823,281.350800 
	C589.474670,291.092987 583.828369,295.804138 574.733215,297.784668 
	C566.161194,299.651337 553.994202,296.477692 550.701904,289.919800 
	C548.527039,285.587799 547.285339,280.364807 547.162354,275.501923 
	C546.742004,258.883026 547.001282,242.246948 547.001282,225.309174 
	C551.607910,225.309174 556.006165,225.309174 561.000000,225.309174 
	C561.000000,234.653046 561.000000,244.076523 561.000000,254.000000 
z"/>
<path fill="#003D4C" opacity="1.000000" stroke="none" 
	d="
M536.000000,281.995911 
	C536.000000,287.136902 536.000000,291.778625 536.000000,296.709045 
	C531.355469,296.709045 526.954163,296.709045 522.115234,296.709045 
	C522.115234,276.986237 522.115234,257.250671 522.115234,237.094116 
	C518.959473,237.094116 516.220886,237.094116 513.244446,237.094116 
	C513.244446,233.269806 513.244446,229.865768 513.244446,226.034180 
	C516.095154,226.034180 518.835266,226.034180 521.998474,226.034180 
	C521.998474,219.214020 521.998474,212.799103 521.998474,206.201355 
	C526.707520,206.201355 530.992615,206.201355 535.719360,206.201355 
	C535.719360,212.491287 535.719360,218.900681 535.719360,225.732483 
	C538.534607,225.886017 540.942749,226.017349 543.676270,226.166443 
	C543.676270,229.546570 543.676270,232.954788 543.676270,236.813126 
	C541.410889,236.914658 538.998840,237.022766 536.000000,237.157181 
	C536.000000,251.963272 536.000000,266.729950 536.000000,281.995911 
z"/>
<path fill="#003D4C" opacity="1.000000" stroke="none" 
	d="
M1038.000000,248.283798 
	C1038.000000,264.598877 1038.000000,280.470734 1038.000000,296.670807 
	C1032.436035,296.670807 1028.040771,296.670807 1023.320190,296.670807 
	C1023.320190,273.448639 1023.320190,250.083069 1023.320190,226.358307 
	C1027.639038,226.358307 1032.166138,226.358307 1037.022949,226.358307 
	C1037.022949,228.534439 1037.022949,230.624710 1037.022949,233.938095 
	C1041.998901,228.735809 1046.030518,223.456879 1053.676758,225.279984 
	C1053.676758,228.831970 1053.676758,232.571457 1053.676758,236.581696 
	C1047.079468,238.139801 1038.840698,237.910202 1038.000000,248.283798 
z"/>
<path fill="#003D4C" opacity="1.000000" stroke="none" 
	d="
M1064.116577,226.000031 
	C1067.560303,226.000000 1070.525024,226.000000 1073.742920,226.000000 
	C1073.742920,249.701920 1073.742920,273.086853 1073.742920,296.736359 
	C1069.300415,296.736359 1064.902100,296.736359 1060.000000,296.736359 
	C1060.000000,291.739136 1060.000000,286.797272 1060.000000,281.855438 
	C1060.000000,264.539429 1060.058960,247.223053 1059.941284,229.907852 
	C1059.921997,227.066589 1060.320557,225.343231 1064.116577,226.000031 
z"/>
<path fill="#003D4C" opacity="1.000000" stroke="none" 
	d="
M860.000000,274.999939 
	C860.000000,282.469177 860.000000,289.438477 860.000000,296.702667 
	C855.371643,296.702667 850.973450,296.702667 846.284241,296.702667 
	C846.284241,273.358124 846.284241,249.977158 846.284241,226.297546 
	C850.630188,226.297546 855.027771,226.297546 860.000000,226.297546 
	C860.000000,242.337616 860.000000,258.418793 860.000000,274.999939 
z"/>
<path fill="#B01C2D" opacity="1.000000" stroke="none" 
	d="
M1064.930176,136.403122 
	C1060.155273,132.598038 1060.189819,127.792137 1061.541870,123.083862 
	C1063.211548,117.268959 1067.742310,114.351540 1073.600586,114.091888 
	C1077.615112,113.913963 1081.667603,114.592415 1084.981934,114.835213 
	C1084.981934,123.881622 1085.266968,132.281342 1084.869507,140.648651 
	C1084.649536,145.279755 1077.613159,148.787842 1072.167358,147.611435 
	C1071.058716,147.371918 1069.940552,147.071533 1068.817017,147.022034 
	C1062.642212,146.749908 1062.641113,146.773697 1063.413208,140.414474 
	C1067.547852,140.641449 1071.697510,140.869263 1075.847168,141.097061 
	C1075.989868,140.407700 1076.132568,139.718353 1076.275269,139.028992 
	C1072.586182,138.252716 1068.897095,137.476440 1064.930176,136.403122 
M1070.455566,130.897186 
	C1076.026733,132.778717 1078.562988,129.065659 1077.633179,120.389275 
	C1070.032227,119.998299 1067.584473,123.139854 1070.455566,130.897186 
z"/>
<path fill="#B01C2D" opacity="1.000000" stroke="none" 
	d="
M757.999878,123.721062 
	C757.292969,132.828552 751.093811,137.638596 743.307861,137.067780 
	C738.361877,136.705185 733.367737,137.000000 728.424927,137.000000 
	C728.964783,126.911606 729.486328,117.164505 730.043152,106.760124 
	C736.325073,107.047462 742.329468,106.702339 748.084045,107.740967 
	C755.405273,109.062347 757.944946,112.917427 757.998962,120.282906 
	C758.006287,121.281502 758.000000,122.280205 757.999878,123.721062 
M737.077209,130.130798 
	C741.013367,132.100525 744.979309,131.525391 747.622314,128.411713 
	C750.287354,125.272087 751.361816,121.071106 748.978455,117.054008 
	C746.279846,112.505692 741.684448,113.302498 737.008606,112.985756 
	C737.008606,118.659340 737.008606,123.926819 737.077209,130.130798 
z"/>
<path fill="#B01C2D" opacity="1.000000" stroke="none" 
	d="
M523.431091,107.001724 
	C524.877319,107.000206 525.881836,107.073044 526.872803,106.987679 
	C531.818604,106.561638 536.490906,106.447273 535.263123,113.461952 
	C531.445374,113.639069 527.186401,113.250458 523.236023,114.177277 
	C518.891174,115.196663 516.604126,121.870705 518.242188,126.661362 
	C519.387085,130.009766 524.848816,132.542969 528.778381,131.665237 
	C530.644714,131.248352 532.568604,131.088745 534.487854,130.809464 
	C534.947144,136.355591 533.729858,138.064148 528.968140,137.917557 
	C525.270752,137.803741 521.396729,137.516068 517.954529,136.303024 
	C511.564697,134.051224 508.826660,129.372055 509.000763,122.726898 
	C509.164581,116.473480 513.426208,110.056099 518.783325,108.119545 
	C520.140442,107.628983 521.580994,107.369049 523.431091,107.001724 
z"/>
<path fill="#B01C2D" opacity="1.000000" stroke="none" 
	d="
M1135.998657,120.486786 
	C1136.000000,126.084824 1136.000000,131.228836 1136.000000,136.685242 
	C1133.365234,136.685242 1130.968994,136.685242 1127.999878,136.685242 
	C1127.999878,132.965485 1127.976562,129.186646 1128.008667,125.408279 
	C1128.027954,123.138985 1128.017578,120.461731 1124.882812,121.167870 
	C1123.087524,121.572258 1120.679077,123.368744 1120.268433,124.977867 
	C1119.316284,128.708939 1119.410278,132.706970 1119.064453,136.780807 
	C1116.223511,136.780807 1113.793457,136.780807 1112.000122,136.780807 
	C1112.000122,130.908234 1112.170410,125.193062 1111.937744,119.494331 
	C1111.792603,115.935471 1113.142700,114.812492 1116.584595,114.918915 
	C1119.350708,115.004448 1122.171875,114.538895 1124.910767,114.015259 
	C1130.215332,113.001076 1134.420166,115.191727 1135.998657,120.486786 
z"/>
<path fill="#B01C2D" opacity="1.000000" stroke="none" 
	d="
M1041.586426,136.551483 
	C1038.986328,136.893997 1036.705444,136.893997 1033.724487,136.893997 
	C1034.111572,129.533508 1034.480103,122.526604 1034.877197,114.975166 
	C1041.551270,114.975166 1047.858398,114.724648 1054.116089,115.169716 
	C1055.499756,115.268135 1057.705078,117.750717 1057.820923,119.266380 
	C1058.260742,125.014961 1057.998047,130.817307 1057.998047,136.794144 
	C1055.278198,136.794144 1052.996948,136.794144 1050.030151,136.794144 
	C1050.030151,133.309464 1050.304321,129.695770 1049.915039,126.155014 
	C1049.719116,124.372452 1048.318848,122.722267 1047.463257,121.012222 
	C1045.645508,122.584801 1042.774292,123.868408 1042.245972,125.794693 
	C1041.352417,129.052124 1041.940430,132.715988 1041.586426,136.551483 
z"/>
<path fill="#B01C2D" opacity="1.000000" stroke="none" 
	d="
M537.002441,125.240242 
	C539.164124,115.439529 544.085083,114.001907 550.636353,114.029503 
	C557.528442,114.058525 560.203613,117.718521 559.852417,127.000000 
	C557.481628,127.000000 555.065674,127.000000 552.649719,127.000000 
	C550.192139,127.000000 547.734497,127.000000 544.763184,127.000000 
	C547.757446,135.120270 553.800110,130.829544 558.461609,131.062378 
	C558.229370,132.975876 558.023438,134.672333 557.815125,136.388306 
	C545.421753,141.159790 536.395325,135.698044 537.002441,125.240242 
z"/>
<path fill="#B01C2D" opacity="1.000000" stroke="none" 
	d="
M760.023804,127.668396 
	C759.433167,120.103081 765.074158,114.950287 770.471497,114.035896 
	C776.759460,112.970619 783.106689,116.270790 784.775330,121.337646 
	C787.116638,128.447174 783.914001,135.045868 776.876099,137.613342 
	C770.423279,139.967392 763.101868,136.198929 760.780762,129.349945 
	C760.626953,128.896057 760.292786,128.503311 760.023804,127.668396 
M776.021606,121.539223 
	C773.447693,118.489723 770.440308,120.295090 769.590576,122.347618 
	C768.581543,124.784943 769.489563,128.015915 769.566833,130.902954 
	C771.671143,130.790329 774.377441,131.458984 775.752258,130.399628 
	C778.471558,128.304321 777.884827,125.040581 776.021606,121.539223 
z"/>
<path fill="#B01C2D" opacity="1.000000" stroke="none" 
	d="
M675.000366,118.166656 
	C679.392029,114.467377 684.423035,112.790459 689.972900,114.561905 
	C697.199524,116.868553 699.476196,123.121162 697.118591,129.671875 
	C694.729675,136.309372 688.161194,139.696655 681.168274,137.662109 
	C674.998779,135.867142 673.027588,132.316879 673.293457,122.421036 
	C674.067444,120.666847 674.533875,119.416748 675.000366,118.166656 
M686.304016,120.063896 
	C685.243896,120.373116 683.490601,120.411446 683.245361,121.039108 
	C682.255737,123.571335 681.370728,126.266205 681.228333,128.942581 
	C681.177612,129.896896 683.533264,131.957184 684.457031,131.779480 
	C686.314697,131.422150 688.867371,130.244217 689.470459,128.738800 
	C690.658569,125.772827 690.779602,122.331116 686.304016,120.063896 
z"/>
<path fill="#B01C2D" opacity="1.000000" stroke="none" 
	d="
M833.162231,114.933731 
	C840.204468,112.788086 847.017212,115.303085 848.797607,120.499146 
	C851.161133,127.397476 848.156921,134.883759 842.168274,137.018921 
	C835.113953,139.534088 826.859253,137.148682 825.382568,131.714050 
	C823.569519,125.041924 824.490662,116.839760 833.162231,114.933731 
M835.127319,131.625549 
	C839.689575,133.145248 841.510986,129.765884 841.694763,126.675217 
	C841.821350,124.546188 839.692505,120.911049 837.834900,120.338188 
	C834.553223,119.326157 832.600037,122.583221 832.335510,125.529655 
	C832.177551,127.289474 833.775574,129.206940 835.127319,131.625549 
z"/>
<path fill="#B01C2D" opacity="1.000000" stroke="none" 
	d="
M630.685181,137.862564 
	C626.102722,136.340225 623.323303,133.901825 622.950928,129.112839 
	C622.515625,123.514679 623.229980,118.444412 628.430115,115.262405 
	C632.187927,112.962997 640.097534,113.425247 642.756287,116.553024 
	C644.511841,118.618301 645.175842,121.748268 645.801453,124.520485 
	C645.924927,125.067848 643.691345,126.785027 642.459167,126.882660 
	C638.523132,127.194542 634.546753,126.998360 630.502625,126.998360 
	C632.620056,132.662323 633.212769,132.846176 643.385315,131.196060 
	C643.700073,136.522232 642.551453,137.891266 637.593506,137.990967 
	C635.429504,138.034470 633.263428,137.981049 630.685181,137.862564 
z"/>
<path fill="#B01C2D" opacity="1.000000" stroke="none" 
	d="
M563.000000,125.816391 
	C563.000000,122.051445 563.000000,118.761185 563.000000,115.511452 
	C568.573853,114.984566 573.772156,114.237709 578.988831,114.074089 
	C583.905396,113.919868 587.020447,117.065781 586.936096,121.986053 
	C586.852417,126.863487 586.250366,131.732040 585.861633,136.787720 
	C583.171692,136.787720 580.754211,136.787720 578.999573,136.787720 
	C578.999573,132.731171 579.220581,128.846176 578.882935,125.010361 
	C578.760315,123.616592 576.943054,121.099213 576.518677,121.222786 
	C574.570007,121.790207 571.688965,122.768715 571.255981,124.227158 
	C570.114624,128.071503 570.070496,132.241577 569.544800,136.657471 
	C567.445984,136.657471 565.052002,136.657471 561.864929,136.657471 
	C562.239441,133.236801 562.619751,129.763947 563.000000,125.816391 
z"/>
<path fill="#B01C2D" opacity="1.000000" stroke="none" 
	d="
M871.481934,115.308754 
	C876.653198,115.040840 881.509216,114.645226 886.249146,115.214790 
	C887.666016,115.385040 889.599731,118.144623 889.830200,119.909386 
	C890.363403,123.991936 889.999878,128.191605 890.000000,132.343765 
	C890.000061,133.660751 890.000000,134.977753 890.000000,137.226837 
	C887.167603,136.843292 884.610229,136.411026 882.035217,136.229477 
	C881.584778,136.197723 881.034119,137.702957 880.573792,137.678207 
	C877.200623,137.496887 873.518066,137.814911 870.602783,136.495651 
	C869.048889,135.792450 868.181458,132.132080 868.226685,129.830475 
	C868.258057,128.236496 870.054016,126.055672 871.631165,125.243690 
	C874.863770,123.579437 878.479431,122.659294 882.408203,121.265785 
	C878.333069,116.324791 874.165100,122.003021 870.308777,120.607536 
	C870.578003,118.933792 870.850098,117.242249 871.481934,115.308754 
M875.080078,130.627548 
	C876.698975,131.265305 878.383362,132.492859 879.912537,132.322937 
	C880.852112,132.218521 881.554138,129.976318 882.362854,128.694046 
	C881.970215,128.364120 881.577637,128.034180 881.184998,127.704239 
	C879.308899,128.464218 877.432800,129.224213 875.080078,130.627548 
z"/>
<path fill="#B01C2D" opacity="1.000000" stroke="none" 
	d="
M1019.000000,125.940689 
	C1018.549744,129.773819 1018.099487,133.150940 1017.617920,136.762878 
	C1015.228638,136.762878 1012.814270,136.762878 1010.999634,136.762878 
	C1010.999634,132.771637 1011.266052,128.889221 1010.863098,125.077591 
	C1010.710693,123.636246 1008.848877,121.145561 1008.052795,121.253143 
	C1006.284180,121.492126 1003.621704,122.774277 1003.240356,124.158989 
	C1002.170715,128.043594 1002.072449,132.195633 1001.543945,136.638000 
	C999.484192,136.638000 997.091064,136.638000 994.250610,136.638000 
	C994.591187,129.696976 994.939941,122.588417 995.283569,115.585480 
	C999.752563,115.049728 1004.114441,114.393257 1008.500488,114.030296 
	C1016.349731,113.380745 1018.998718,116.344528 1019.000000,125.940689 
z"/>
<path fill="#B01C2D" opacity="1.000000" stroke="none" 
	d="
M960.472290,115.322754 
	C965.638550,115.042427 970.497742,114.645493 975.241211,115.213745 
	C976.660095,115.383720 978.680603,118.172150 978.828369,119.897705 
	C979.293457,125.328972 978.999634,130.825226 978.999634,137.233902 
	C976.163025,136.844437 973.606262,136.365005 971.031677,136.233154 
	C970.413269,136.201477 969.830933,137.532761 969.069153,137.880096 
	C965.568665,139.476059 958.223999,137.201645 957.126648,134.276260 
	C955.443481,129.789108 957.877625,125.895706 963.576050,124.003334 
	C966.072876,123.174164 968.584656,122.390076 971.663696,121.401138 
	C967.251587,116.415436 963.333130,122.019119 959.601562,120.697884 
	C959.774109,118.990036 959.947449,117.282944 960.472290,115.322754 
M968.305298,132.935486 
	C969.325806,131.582108 970.346313,130.228729 971.366760,128.875351 
	C970.823853,128.394714 970.280945,127.914085 969.737976,127.433456 
	C967.854248,128.635559 965.970520,129.837662 964.086853,131.039810 
	C965.224182,131.690247 966.361511,132.340683 968.305298,132.935486 
z"/>
<path fill="#B01C2D" opacity="1.000000" stroke="none" 
	d="
M926.114319,136.999969 
	C924.518616,136.926331 923.384155,136.852692 922.517456,136.796448 
	C922.517456,129.207092 922.517456,121.869240 922.517456,114.076302 
	C920.270020,114.076302 917.870544,114.076302 915.239380,114.076302 
	C915.239380,111.570221 915.239380,109.510468 915.239380,107.223236 
	C923.806519,107.223236 932.211304,107.223236 940.600708,107.223236 
	C941.286560,113.996422 939.479797,115.323822 931.809570,112.775558 
	C931.809570,120.814880 931.809570,128.560455 931.809570,136.661026 
	C929.412170,136.816284 927.993896,136.908142 926.114319,136.999969 
z"/>
<path fill="#B01C2D" opacity="1.000000" stroke="none" 
	d="
M674.600403,118.082520 
	C674.533875,119.416748 674.067444,120.666847 673.243652,121.980026 
	C671.077881,122.043114 669.269531,122.043114 667.037598,122.043114 
	C667.037598,127.008728 667.037598,131.773361 667.037598,136.762268 
	C664.215576,136.762268 661.816345,136.762268 659.550964,136.762268 
	C656.946289,131.437790 663.667480,124.994499 656.935303,119.728828 
	C658.463989,116.349380 659.690613,112.053665 662.137878,108.630623 
	C665.153687,104.412262 669.619507,105.809883 673.778076,107.467506 
	C673.778076,109.271790 673.778076,111.046791 673.778076,113.097534 
	C672.597717,112.674828 671.686951,112.066422 670.809814,112.111435 
	C669.873047,112.159515 668.967834,112.824440 668.048889,113.220108 
	C668.778687,113.812492 669.496887,114.419884 670.240845,114.993973 
	C671.552429,116.006157 672.879700,116.998016 674.600403,118.082520 
z"/>
<path fill="#B01C2D" opacity="1.000000" stroke="none" 
	d="
M796.751526,121.766068 
	C796.338074,124.819084 795.059326,128.931641 796.354553,130.042267 
	C798.363892,131.765152 802.127319,131.442322 806.024292,132.144913 
	C805.718689,133.172729 805.528198,136.344147 804.563232,136.600540 
	C801.229553,137.486267 797.448181,138.157333 794.165771,137.429184 
	C788.937012,136.269287 786.196533,130.573898 787.010437,124.659889 
	C787.901245,118.187431 791.761047,114.336502 797.694214,114.000648 
	C805.248108,113.573067 806.733887,114.647888 806.714111,120.345665 
	C803.471802,120.725906 800.255798,121.103065 796.751526,121.766068 
z"/>
<path fill="#B01C2D" opacity="1.000000" stroke="none" 
	d="
M813.208374,137.054596 
	C809.663147,134.664841 809.735840,131.589844 810.347412,128.150360 
	C810.821594,125.483452 813.151245,122.198090 808.487427,120.430016 
	C807.866272,120.194519 807.693665,116.187569 808.207886,115.961464 
	C811.820068,114.373055 812.310059,107.254150 818.703003,110.613182 
	C818.820007,111.497330 819.008545,112.921989 819.238770,114.661453 
	C820.546204,114.828285 821.964905,115.009323 823.694092,115.229973 
	C823.694092,116.922951 823.694092,118.661049 823.694092,120.743042 
	C822.036072,120.886673 820.283875,121.038467 818.549744,121.188690 
	C817.512329,130.020630 817.063354,133.580338 823.360474,131.107178 
	C822.987366,138.585648 821.469971,139.525894 813.208374,137.054596 
z"/>
<path fill="#B01C2D" opacity="1.000000" stroke="none" 
	d="
M592.707397,113.632843 
	C593.157593,108.501556 596.758484,110.418106 599.539001,109.960442 
	C599.805908,111.575287 600.059082,113.107094 600.355652,114.901405 
	C601.842651,114.974030 603.265991,115.043541 604.819031,115.119385 
	C604.819031,117.075775 604.819031,118.690849 604.819031,120.312057 
	C600.052002,121.464745 597.640991,124.992859 599.193604,129.560928 
	C599.627014,130.836105 602.121521,131.410751 603.670532,132.306763 
	C604.221619,132.020782 604.772705,131.734802 605.323792,131.448822 
	C604.480957,133.527512 603.933838,137.152161 602.737244,137.380981 
	C599.730164,137.956024 596.144104,137.629089 593.371704,136.376587 
	C592.055176,135.781784 591.805847,132.279053 591.537842,130.038071 
	C591.147461,126.774231 594.085571,123.405983 589.551575,120.254929 
	C587.155518,118.589699 589.031616,115.025711 592.707397,113.632843 
z"/>
<path fill="#B01C2D" opacity="1.000000" stroke="none" 
	d="
M902.000000,119.066757 
	C902.000000,125.234726 902.000000,130.915985 902.000000,136.792603 
	C898.145386,136.792603 895.723145,136.792603 893.414185,136.792603 
	C893.973145,126.978622 894.520752,117.363953 895.089661,107.374741 
	C897.485962,107.374741 899.876343,107.374741 902.685242,107.374741 
	C902.464844,110.979111 902.232422,114.779579 902.000000,119.066757 
z"/>
<path fill="#B01C2D" opacity="1.000000" stroke="none" 
	d="
M861.300659,122.357025 
	C860.533875,127.254410 860.015015,131.793320 859.456238,136.681229 
	C857.379150,136.681229 854.981628,136.681229 851.772705,136.681229 
	C852.207397,129.687973 852.642578,122.686623 853.096924,115.377563 
	C857.933655,114.899529 862.724854,114.425987 867.777710,113.926590 
	C867.777710,116.463036 867.777710,118.541328 867.777710,120.472496 
	C865.552124,121.017738 863.550415,121.508141 861.300659,122.357025 
z"/>
<path fill="#B01C2D" opacity="1.000000" stroke="none" 
	d="
M951.567810,121.196678 
	C950.108948,126.370041 949.056580,131.389481 947.928894,136.768402 
	C946.207275,136.768402 943.810669,136.768402 940.835632,136.768402 
	C941.329041,129.526306 941.805847,122.527908 942.293396,115.371407 
	C947.006409,114.886497 951.680298,114.405609 956.690186,113.890152 
	C956.690186,116.254799 956.690186,118.327202 956.690186,120.810020 
	C955.167480,120.885170 953.570923,120.963966 951.567810,121.196678 
z"/>
<path fill="#B01C2D" opacity="1.000000" stroke="none" 
	d="
M617.536743,114.014816 
	C619.116089,114.002914 620.270264,114.002914 621.712158,114.002914 
	C621.712158,116.214081 621.712158,118.295578 621.712158,120.595215 
	C610.012268,121.196907 615.544861,130.753479 613.531311,136.767029 
	C611.221436,136.767029 608.832031,136.767029 606.075684,136.767029 
	C606.496643,129.615814 606.907043,122.644272 607.319336,115.640076 
	C610.520142,115.112717 613.815857,114.569725 617.536743,114.014816 
z"/>
<path fill="#B01C2D" opacity="1.000000" stroke="none" 
	d="
M700.000793,133.989807 
	C700.489624,127.476913 700.979126,121.427071 701.466675,115.401627 
	C706.104431,114.947662 710.779541,114.490044 715.735229,114.004959 
	C715.735229,116.303368 715.735229,118.394646 715.735229,120.631630 
	C704.166687,121.331490 709.386414,130.548981 707.580017,136.788910 
	C705.173157,135.763565 701.448669,139.768921 700.000793,133.989807 
z"/>
<path fill="#003D4C" opacity="1.000000" stroke="none" 
	d="
M845.252686,205.625992 
	C846.659119,198.395035 850.512695,195.438782 855.647644,197.258194 
	C859.332458,198.563797 861.517212,201.754486 860.685791,205.116806 
	C860.040955,207.724533 857.323425,211.015656 854.865601,211.731674 
	C849.649536,213.251282 847.196533,211.196655 845.252686,205.625992 
z"/>
<path fill="#003D4C" opacity="1.000000" stroke="none" 
	d="
M1071.582764,198.092178 
	C1074.313965,200.948151 1076.190552,203.550140 1074.189209,207.415833 
	C1072.617188,210.452377 1070.734863,212.296097 1067.032349,212.048233 
	C1062.046387,211.714417 1059.909912,209.508011 1060.000000,204.214798 
	C1060.083496,199.300568 1062.238770,197.046478 1067.110474,197.042801 
	C1068.497559,197.041748 1069.885010,197.555634 1071.582764,198.092178 
z"/>
<path fill="#B01C2D" opacity="1.000000" stroke="none" 
	d="
M991.000000,122.073044 
	C991.000000,127.188934 991.000000,131.813766 991.000000,136.716309 
	C987.975830,136.716309 985.246277,136.716309 982.838562,136.716309 
	C982.838562,129.646027 982.838562,122.623085 982.838562,115.303383 
	C985.650818,115.303383 988.042053,115.303383 991.000000,115.303383 
	C991.000000,117.376732 991.000000,119.479355 991.000000,122.073044 
z"/>
<path fill="#B01C2D" opacity="1.000000" stroke="none" 
	d="
M1108.995117,118.886398 
	C1108.498047,125.039543 1108.004639,130.734909 1107.485962,136.722778 
	C1105.302979,136.722778 1102.914673,136.722778 1099.815430,136.722778 
	C1100.280884,129.656403 1100.740112,122.682556 1101.241211,115.072670 
	C1103.837646,116.458755 1108.529785,111.397728 1108.995117,118.886398 
z"/>
<path fill="#B01C2D" opacity="1.000000" stroke="none" 
	d="
M1030.999268,118.048187 
	C1030.525757,124.530968 1030.051514,130.548706 1029.560059,136.783081 
	C1027.314697,136.783081 1025.042358,136.783081 1022.058472,136.783081 
	C1022.462769,129.788315 1022.872437,122.699921 1023.312622,115.084312 
	C1025.845703,116.287498 1029.643921,112.193047 1030.999268,118.048187 
z"/>
<path fill="#B01C2D" opacity="1.000000" stroke="none" 
	d="
M1108.560425,107.404152 
	C1108.895020,109.325508 1108.895020,110.937317 1108.895020,112.772514 
	C1106.228760,112.772514 1103.835083,112.772514 1101.220703,112.772514 
	C1101.220703,110.874641 1101.220703,109.150734 1101.220703,107.094612 
	C1103.679688,107.094612 1105.952759,107.094612 1108.560425,107.404152 
z"/>
<path fill="#B01C2D" opacity="1.000000" stroke="none" 
	d="
M1029.750977,112.948013 
	C1027.343018,112.989326 1025.396729,112.989326 1023.228943,112.989326 
	C1023.228943,110.891678 1023.228943,109.168510 1023.228943,107.222130 
	C1025.783447,107.222130 1028.175659,107.222130 1031.264160,107.222130 
	C1030.879639,109.301117 1030.546143,111.103912 1029.750977,112.948013 
z"/>
<path fill="#B01C2D" opacity="1.000000" stroke="none" 
	d="
M984.006104,110.886719 
	C984.044617,103.633804 989.111023,108.664360 991.283997,106.880310 
	C991.638306,107.116730 991.992615,107.353142 992.346924,107.589561 
	C991.659302,109.337517 991.277466,112.297417 990.216431,112.565140 
	C988.368591,113.031364 986.101929,111.837509 984.006104,110.886719 
z"/>
<path fill="#FFFFFF" opacity="1.000000" stroke="none" 
	d="
M1163.000000,255.030365 
	C1162.668457,263.233490 1162.434692,270.947662 1161.959961,278.646973 
	C1161.753784,281.990753 1159.785889,284.594421 1156.424072,284.878662 
	C1152.661499,285.196747 1150.590576,282.790222 1149.945801,279.055328 
	C1148.247070,269.216705 1146.721436,259.358704 1148.920166,249.422668 
	C1149.764160,245.608505 1150.401367,241.382278 1152.527100,238.307999 
	C1155.376465,234.187378 1160.821045,235.784576 1161.832397,240.901184 
	C1162.711548,245.349091 1162.647339,249.983444 1163.000000,255.030365 
z"/>
<path fill="#FFFFFF" opacity="1.000000" stroke="none" 
	d="
M219.274689,211.226685 
	C229.521088,202.466354 240.878433,197.318756 254.070038,195.937225 
	C275.477783,193.695236 292.984894,201.282135 307.162018,216.811752 
	C315.499908,225.945068 320.176819,236.936768 322.129669,249.349289 
	C325.100189,268.230530 318.977051,284.126953 307.780457,298.712372 
	C307.171722,299.505341 306.493927,300.245300 305.856110,301.000641 
	C295.206909,291.092987 292.882050,290.205780 288.335602,294.179565 
	C283.231903,298.640472 283.744843,302.638306 290.678925,312.444946 
	C264.752563,326.953094 231.580750,321.536987 212.307220,297.486084 
	C197.410416,278.896790 193.647141,257.652863 202.574600,234.817184 
	C206.165512,225.631927 211.834930,218.056763 219.274689,211.226685 
M284.285645,290.966400 
	C286.203674,289.129547 288.133514,287.304840 290.037872,285.453918 
	C302.910461,272.942444 304.535950,250.724319 294.629303,236.185730 
	C285.211426,222.364441 272.268280,216.103592 255.291733,217.917328 
	C235.638565,220.017014 221.199280,236.045013 220.045532,255.528854 
	C219.264923,268.711212 224.197098,279.481659 233.907059,288.576569 
	C246.394867,300.273407 270.577911,301.606750 284.285645,290.966400 
z"/>
<path fill="#FFFFFF" opacity="1.000000" stroke="none" 
	d="
M808.000000,260.989563 
	C808.333435,255.106934 808.507996,249.701736 809.082703,244.339432 
	C809.296875,242.340607 809.996765,240.028412 811.297119,238.615784 
	C812.558899,237.245163 815.655334,235.653931 816.573120,236.255249 
	C818.803406,237.716400 821.654419,240.332474 821.753052,242.592514 
	C822.266052,254.345612 822.104126,266.134430 821.937256,277.907379 
	C821.882324,281.779114 819.183777,284.886688 815.658203,284.645111 
	C813.491150,284.496613 810.285278,281.298859 809.762756,278.972443 
	C808.488159,273.297302 808.503845,267.332336 808.000000,260.989563 
z"/>
<path fill="#FFFFFF" opacity="1.000000" stroke="none" 
	d="
M440.200073,283.311890 
	C434.722504,286.514679 430.718170,284.832153 430.063110,279.140076 
	C429.445801,273.776367 429.047546,268.353149 429.072632,262.958527 
	C429.103882,256.236420 429.505432,249.503189 430.065704,242.801392 
	C430.375793,239.091965 432.712067,236.885315 436.604126,237.032608 
	C440.647308,237.185623 442.947327,239.432602 442.973083,243.506592 
	C443.046570,255.134354 443.087646,266.764587 442.879669,278.389191 
	C442.851837,279.944641 441.313904,281.473083 440.200073,283.311890 
z"/>
<path fill="#FFFFFF" opacity="1.000000" stroke="none" 
	d="
M934.999695,244.063660 
	C935.351318,236.970825 939.244995,232.147919 944.536255,235.264282 
	C946.854248,236.629486 947.985291,240.605499 948.873840,243.625885 
	C949.678894,246.362473 949.421936,249.411453 949.657410,252.655029 
	C944.731506,252.655029 939.551636,252.655029 933.762024,252.655029 
	C934.189941,249.834412 934.594666,247.166718 934.999695,244.063660 
z"/>
<path fill="#FFFFFF" opacity="1.000000" stroke="none" 
	d="
M986.000122,248.182632 
	C986.644836,244.926407 987.644043,242.153046 987.849182,239.322144 
	C988.142883,235.269272 991.701782,234.078995 993.880798,234.405228 
	C996.135986,234.742920 998.996765,237.518936 999.767395,239.835571 
	C1001.065369,243.737305 1000.921326,248.118729 1001.425781,252.677505 
	C996.126526,252.677505 991.409302,252.677505 986.255737,252.677505 
	C986.178284,251.454483 986.089111,250.047150 986.000122,248.182632 
z"/>
<path fill="#FFFFFF" opacity="1.000000" stroke="none" 
	d="
M1070.171875,130.613373 
	C1067.584473,123.139854 1070.032227,119.998299 1077.633179,120.389275 
	C1078.562988,129.065659 1076.026733,132.778717 1070.171875,130.613373 
z"/>
<path fill="#FFFFFF" opacity="1.000000" stroke="none" 
	d="
M737.042908,129.662537 
	C737.008606,123.926819 737.008606,118.659340 737.008606,112.985756 
	C741.684448,113.302498 746.279846,112.505692 748.978455,117.054008 
	C751.361816,121.071106 750.287354,125.272087 747.622314,128.411713 
	C744.979309,131.525391 741.013367,132.100525 737.042908,129.662537 
z"/>
<path fill="#FFFFFF" opacity="1.000000" stroke="none" 
	d="
M776.302063,121.813248 
	C777.884827,125.040581 778.471558,128.304321 775.752258,130.399628 
	C774.377441,131.458984 771.671143,130.790329 769.566833,130.902954 
	C769.489563,128.015915 768.581543,124.784943 769.590576,122.347618 
	C770.440308,120.295090 773.447693,118.489723 776.302063,121.813248 
z"/>
<path fill="#FFFFFF" opacity="1.000000" stroke="none" 
	d="
M686.645630,120.275253 
	C690.779602,122.331116 690.658569,125.772827 689.470459,128.738800 
	C688.867371,130.244217 686.314697,131.422150 684.457031,131.779480 
	C683.533264,131.957184 681.177612,129.896896 681.228333,128.942581 
	C681.370728,126.266205 682.255737,123.571335 683.245361,121.039108 
	C683.490601,120.411446 685.243896,120.373116 686.645630,120.275253 
z"/>
<path fill="#FFFFFF" opacity="1.000000" stroke="none" 
	d="
M834.855835,131.339539 
	C833.775574,129.206940 832.177551,127.289474 832.335510,125.529655 
	C832.600037,122.583221 834.553223,119.326157 837.834900,120.338188 
	C839.692505,120.911049 841.821350,124.546188 841.694763,126.675217 
	C841.510986,129.765884 839.689575,133.145248 834.855835,131.339539 
z"/>
<path fill="#FFFFFF" opacity="1.000000" stroke="none" 
	d="
M875.318359,130.305878 
	C877.432800,129.224213 879.308899,128.464218 881.184998,127.704239 
	C881.577637,128.034180 881.970215,128.364120 882.362854,128.694046 
	C881.554138,129.976318 880.852112,132.218521 879.912537,132.322937 
	C878.383362,132.492859 876.698975,131.265305 875.318359,130.305878 
z"/>
<path fill="#FFFFFF" opacity="1.000000" stroke="none" 
	d="
M967.902100,132.963318 
	C966.361511,132.340683 965.224182,131.690247 964.086853,131.039795 
	C965.970520,129.837662 967.854248,128.635559 969.737976,127.433456 
	C970.280945,127.914085 970.823853,128.394714 971.366760,128.875351 
	C970.346313,130.228729 969.325806,131.582108 967.902100,132.963318 
z"/>
<path fill="#003D4C" opacity="1.000000" stroke="none" 
	d="
M283.919067,291.010620 
	C270.577911,301.606750 246.394867,300.273407 233.907059,288.576569 
	C224.197098,279.481659 219.264923,268.711212 220.045532,255.528854 
	C221.199280,236.045013 235.638565,220.017014 255.291733,217.917328 
	C272.268280,216.103592 285.211426,222.364441 294.629303,236.185730 
	C304.535950,250.724319 302.910461,272.942444 290.037872,285.453918 
	C288.133514,287.304840 286.203674,289.129547 283.919067,291.010620 
M251.020477,271.541138 
	C258.200134,276.565826 267.712982,276.016693 272.561371,269.782623 
	C279.051422,261.437683 278.705841,254.421188 272.955383,246.601715 
	C268.412018,240.423676 258.330505,239.388885 250.885849,244.052322 
	C242.168289,249.513138 240.968750,264.709991 251.020477,271.541138 
z"/>
<path fill="#FFFFFF" opacity="1.000000" stroke="none" 
	d="
M250.723877,271.297852 
	C240.968750,264.709991 242.168289,249.513138 250.885849,244.052322 
	C258.330505,239.388885 268.412018,240.423676 272.955383,246.601715 
	C278.705841,254.421188 279.051422,261.437683 272.561371,269.782623 
	C267.712982,276.016693 258.200134,276.565826 250.723877,271.297852 
M249.860825,252.588852 
	C249.560913,253.668335 249.207596,254.736191 248.969986,255.829208 
	C247.658325,261.862610 249.983093,266.212921 255.976868,269.004333 
	C260.783539,271.242889 267.228027,269.463898 270.462036,265.005737 
	C272.989044,261.522186 272.363678,253.635529 269.739716,250.149170 
	C265.700958,244.783173 254.440674,243.862320 249.860825,252.588852 
z"/>
<path fill="#00C0B5" opacity="1.000000" stroke="none" 
	d="
M249.947784,252.211334 
	C254.440674,243.862320 265.700958,244.783173 269.739716,250.149170 
	C272.363678,253.635529 272.989044,261.522186 270.462036,265.005737 
	C267.228027,269.463898 260.783539,271.242889 255.976868,269.004333 
	C249.983093,266.212921 247.658325,261.862610 248.969986,255.829208 
	C249.207596,254.736191 249.560913,253.668335 249.947784,252.211334 
z"/>
</svg>